<svg xmlns="http://www.w3.org/2000/svg" xmlns:xlink="http://www.w3.org/1999/xlink" width="1920" zoomAndPan="magnify" viewBox="0 0 1440 809.999993" height="1080" preserveAspectRatio="xMidYMid meet" version="1.0"><defs><clipPath id="68521cf175"><path d="M 329.015625 0 L 703.265625 0 L 703.265625 213.828125 L 329.015625 213.828125 Z M 329.015625 0 " clip-rule="nonzero"/></clipPath><clipPath id="becb79c59c"><path d="M 737 0 L 1110.914062 0 L 1110.914062 213.828125 L 737 213.828125 Z M 737 0 " clip-rule="nonzero"/></clipPath></defs><rect x="-144" width="1728" fill="#ffffff" y="-80.999999" height="971.999992" fill-opacity="1"/><rect x="-144" width="1728" fill="#f5f5f4" y="-80.999999" height="971.999992" fill-opacity="1"/><g clip-path="url(#68521cf175)"><path fill="#000000" d="M 506.089844 83.507812 C 506.089844 85.558594 507.582031 87.261719 509.539062 87.605469 L 509.550781 97.996094 C 504.09375 97.636719 499.761719 93.125 499.761719 87.617188 L 498.609375 87.617188 C 498.609375 93.761719 503.457031 98.785156 509.554688 99.148438 L 509.585938 119.039062 L 509.535156 119.039062 C 509.535156 123.890625 508.15625 127.089844 506.234375 129.199219 L 496.324219 118.667969 C 496.769531 118.003906 497.03125 117.203125 497.03125 116.34375 C 497.03125 114.046875 495.164062 112.179688 492.867188 112.179688 C 492.101562 112.179688 491.382812 112.390625 490.765625 112.757812 L 487.453125 109.238281 L 487.453125 97.507812 L 486.300781 97.507812 L 486.300781 108.011719 L 481.140625 102.527344 L 480.300781 103.316406 L 485.109375 108.421875 L 474.570312 108.421875 L 474.570312 109.574219 L 486.191406 109.574219 L 489.859375 113.476562 C 489.148438 114.222656 488.707031 115.230469 488.707031 116.34375 C 488.707031 118.640625 490.574219 120.507812 492.867188 120.507812 C 493.890625 120.507812 494.824219 120.136719 495.550781 119.527344 L 505.414062 130.011719 C 502.382812 132.6875 498.402344 133.15625 496.117188 133.175781 C 495.765625 133.152344 495.402344 133.140625 495.03125 133.140625 L 495.03125 133.1875 L 473.78125 133.15625 C 473.722656 130.210938 472.59375 127.4375 470.550781 125.308594 C 468.402344 123.074219 465.519531 121.8125 462.425781 121.761719 L 462.40625 122.914062 C 465.1875 122.960938 467.785156 124.09375 469.71875 126.109375 C 471.554688 128.019531 472.570312 130.507812 472.628906 133.152344 L 464.617188 133.140625 C 464.480469 130.96875 462.675781 129.242188 460.46875 129.242188 C 458.171875 129.242188 456.300781 131.109375 456.300781 133.402344 C 456.300781 135.699219 458.171875 137.570312 460.46875 137.570312 C 462.457031 137.570312 464.125 136.164062 464.53125 134.292969 L 472.59375 134.304688 C 472.132812 139.6875 467.648438 143.894531 462.226562 143.894531 C 462.167969 143.894531 462.109375 143.894531 462.050781 143.894531 L 462.03125 145.046875 C 462.097656 145.046875 462.164062 145.046875 462.226562 145.046875 C 468.277344 145.046875 473.28125 140.324219 473.746094 134.308594 L 496.238281 134.34375 C 499.988281 134.636719 502.800781 136.304688 504.859375 138.296875 L 502.519531 140.785156 L 497.457031 146.167969 C 496.773438 145.675781 495.9375 145.382812 495.03125 145.382812 C 492.734375 145.382812 490.867188 147.25 490.867188 149.546875 C 490.867188 150.542969 491.21875 151.457031 491.804688 152.175781 L 488.128906 156.082031 L 476.492188 156.082031 L 476.492188 157.234375 L 487.042969 157.234375 L 481.472656 163.15625 L 482.3125 163.949219 L 488.226562 157.664062 L 488.226562 168.148438 L 489.378906 168.148438 L 489.378906 156.4375 L 492.648438 152.957031 C 493.324219 153.429688 494.144531 153.710938 495.03125 153.710938 C 497.328125 153.710938 499.195312 151.84375 499.195312 149.546875 C 499.195312 148.570312 498.855469 147.671875 498.289062 146.960938 L 503.359375 141.574219 L 505.65625 139.132812 C 508.160156 141.917969 509.332031 145.027344 509.625 145.882812 L 509.65625 167.601562 C 503.511719 167.914062 498.609375 172.964844 498.609375 179.140625 L 499.761719 179.140625 C 499.761719 173.597656 504.148438 169.0625 509.65625 168.753906 L 509.671875 179.257812 C 507.652344 179.542969 506.089844 181.28125 506.089844 183.378906 C 506.089844 185.675781 507.957031 187.542969 510.253906 187.542969 C 512.546875 187.542969 514.417969 185.675781 514.417969 183.378906 C 514.417969 181.277344 512.851562 179.539062 510.824219 179.257812 L 510.808594 168.753906 C 516.335938 169.042969 520.746094 173.585938 520.746094 179.140625 L 521.898438 179.140625 C 521.898438 172.949219 516.972656 167.890625 510.808594 167.601562 L 510.777344 146.214844 L 510.804688 146.128906 C 510.824219 146.066406 511.878906 142.753906 514.480469 139.648438 L 519.894531 145.40625 C 519.296875 146.128906 518.9375 147.050781 518.9375 148.058594 C 518.9375 150.355469 520.804688 152.222656 523.101562 152.222656 C 524.019531 152.222656 524.863281 151.921875 525.550781 151.421875 L 529.703125 155.832031 L 529.703125 167.046875 L 530.855469 167.046875 L 530.855469 157.054688 L 537.023438 163.613281 L 537.863281 162.824219 L 531.570312 156.132812 L 542.589844 156.132812 L 542.589844 154.980469 L 530.484375 154.980469 L 526.382812 150.617188 C 526.933594 149.914062 527.269531 149.023438 527.269531 148.058594 C 527.269531 145.765625 525.398438 143.894531 523.101562 143.894531 C 522.230469 143.894531 521.417969 144.167969 520.746094 144.628906 L 515.253906 138.789062 C 517.28125 136.660156 520.09375 134.796875 523.863281 134.382812 L 546.148438 134.417969 C 546.664062 140.382812 551.644531 145.046875 557.660156 145.046875 C 557.726562 145.046875 557.792969 145.046875 557.859375 145.046875 L 557.839844 143.894531 C 552.359375 143.992188 547.816406 139.804688 547.300781 134.417969 L 556.347656 134.433594 C 556.808594 136.234375 558.4375 137.566406 560.375 137.566406 C 562.671875 137.566406 564.542969 135.699219 564.542969 133.402344 C 564.542969 131.109375 562.671875 129.242188 560.375 129.242188 C 558.121094 129.242188 556.285156 131.042969 556.21875 133.28125 L 547.253906 133.265625 C 547.324219 127.625 551.84375 123.007812 557.480469 122.914062 L 557.460938 121.761719 C 551.199219 121.867188 546.175781 126.996094 546.101562 133.265625 L 525.472656 133.234375 L 525.472656 133.140625 C 525.09375 133.117188 519.289062 132.71875 515.066406 129.125 L 520.917969 122.90625 C 521.496094 123.210938 522.152344 123.386719 522.851562 123.386719 C 525.148438 123.386719 527.015625 121.519531 527.015625 119.222656 C 527.015625 118.433594 526.789062 117.699219 526.410156 117.070312 L 529.921875 113.332031 L 541.542969 113.332031 L 541.542969 112.179688 L 531.007812 112.179688 L 539.03125 103.648438 L 538.191406 102.859375 L 529.808594 111.773438 L 529.808594 101.265625 L 528.65625 101.265625 L 528.65625 112.996094 L 525.671875 116.167969 C 524.929688 115.480469 523.941406 115.058594 522.851562 115.058594 C 520.554688 115.058594 518.6875 116.925781 518.6875 119.222656 C 518.6875 120.402344 519.183594 121.46875 519.976562 122.226562 L 514.226562 128.339844 C 512.402344 126.480469 511.011719 123.90625 510.738281 120.339844 L 510.707031 99.160156 C 516.917969 98.921875 521.898438 93.84375 521.898438 87.617188 L 520.746094 87.617188 C 520.746094 93.207031 516.28125 97.769531 510.703125 98.007812 L 510.691406 87.648438 C 512.78125 87.429688 514.417969 85.65625 514.417969 83.507812 C 514.417969 81.210938 512.546875 79.34375 510.253906 79.34375 C 507.957031 79.34375 506.089844 81.210938 506.089844 83.507812 Z M 492.867188 119.355469 C 491.207031 119.355469 489.859375 118.007812 489.859375 116.34375 C 489.859375 114.683594 491.207031 113.332031 492.867188 113.332031 C 494.53125 113.332031 495.878906 114.683594 495.878906 116.34375 C 495.878906 118.007812 494.53125 119.355469 492.867188 119.355469 Z M 460.46875 136.417969 C 458.804688 136.417969 457.453125 135.066406 457.453125 133.402344 C 457.453125 131.742188 458.804688 130.394531 460.46875 130.394531 C 462.128906 130.394531 463.476562 131.742188 463.476562 133.402344 C 463.476562 135.066406 462.128906 136.417969 460.46875 136.417969 Z M 495.03125 152.558594 C 493.371094 152.558594 492.019531 151.207031 492.019531 149.546875 C 492.019531 147.886719 493.371094 146.535156 495.03125 146.535156 C 496.691406 146.535156 498.042969 147.886719 498.042969 149.546875 C 498.042969 151.207031 496.691406 152.558594 495.03125 152.558594 Z M 523.101562 145.046875 C 524.765625 145.046875 526.117188 146.398438 526.117188 148.058594 C 526.117188 149.722656 524.765625 151.074219 523.101562 151.074219 C 521.441406 151.074219 520.089844 149.722656 520.089844 148.058594 C 520.089844 146.398438 521.441406 145.046875 523.101562 145.046875 Z M 560.375 130.394531 C 562.039062 130.394531 563.390625 131.742188 563.390625 133.402344 C 563.390625 135.066406 562.039062 136.417969 560.375 136.417969 C 558.714844 136.417969 557.363281 135.066406 557.363281 133.402344 C 557.363281 131.742188 558.714844 130.394531 560.375 130.394531 Z M 519.839844 119.222656 C 519.839844 117.5625 521.191406 116.210938 522.851562 116.210938 C 524.511719 116.210938 525.863281 117.5625 525.863281 119.222656 C 525.863281 120.882812 524.511719 122.234375 522.851562 122.234375 C 521.191406 122.234375 519.839844 120.882812 519.839844 119.222656 Z M 513.265625 183.378906 C 513.265625 185.039062 511.914062 186.390625 510.253906 186.390625 C 508.59375 186.390625 507.242188 185.039062 507.242188 183.378906 C 507.242188 181.71875 508.59375 180.367188 510.253906 180.367188 C 511.914062 180.367188 513.265625 181.71875 513.265625 183.378906 Z M 521.660156 133.609375 C 514.914062 135.355469 511.503906 141.515625 510.265625 144.347656 C 509.125 141.648438 506.058594 135.953125 499.882812 133.898438 C 503.691406 133.054688 508.648438 130.617188 510.199219 123.738281 C 512.128906 130.003906 517.8125 132.570312 521.660156 133.609375 Z M 513.265625 83.507812 C 513.265625 85.167969 511.914062 86.519531 510.253906 86.519531 C 508.59375 86.519531 507.242188 85.167969 507.242188 83.507812 C 507.242188 81.847656 508.59375 80.496094 510.253906 80.496094 C 511.914062 80.496094 513.265625 81.847656 513.265625 83.507812 Z M 702.359375 157.496094 C 702.296875 157.105469 702.226562 156.710938 702.148438 156.324219 C 698.558594 137.539062 684.109375 122.570312 665.609375 118.203125 L 665.609375 110.40625 L 655.074219 110.40625 L 655.058594 91.046875 C 657.003906 95.003906 661.496094 101.109375 670.703125 101.109375 L 670.703125 99.957031 C 659.460938 99.957031 655.808594 90.476562 655.058594 88.039062 L 654.980469 -10.769531 L 701.246094 -10.769531 L 701.246094 -11.921875 L 329.367188 -11.921875 L 329.367188 -10.769531 L 374.085938 -10.769531 L 374.15625 105.214844 L 374.144531 105.210938 C 374.136719 105.246094 374.109375 105.339844 374.070312 105.476562 L 374.046875 105.484375 C 374.046875 105.484375 374.050781 105.5 374.058594 105.523438 C 373.542969 107.285156 370.570312 115.691406 360.875 115.691406 L 360.875 116.84375 C 368.675781 116.84375 372.496094 111.683594 374.15625 108.320312 L 374.167969 124.519531 L 365.285156 124.519531 L 365.285156 131.101562 C 349.207031 134.882812 336.734375 148.125 334.089844 164.605469 C 333.96875 165.332031 333.871094 166.0625 333.792969 166.800781 C 333.644531 168.234375 333.5625 169.683594 333.5625 171.160156 C 333.5625 172.976562 333.679688 174.761719 333.910156 176.511719 C 334.140625 178.285156 334.484375 180.015625 334.9375 181.707031 L 334.9375 181.714844 C 339.609375 199.308594 355.664062 212.308594 374.703125 212.308594 C 393.410156 212.308594 409.234375 199.761719 414.214844 182.640625 C 414.746094 180.816406 415.15625 178.9375 415.433594 177.011719 C 415.703125 175.101562 415.847656 173.148438 415.847656 171.160156 C 415.847656 169.800781 415.777344 168.453125 415.652344 167.128906 C 415.582031 166.449219 415.5 165.769531 415.402344 165.101562 C 412.925781 148.425781 400.414062 134.976562 384.222656 131.125 L 384.222656 124.519531 L 375.320312 124.519531 L 375.308594 108.632812 C 377.050781 111.996094 380.875 116.84375 388.4375 116.84375 L 388.4375 115.691406 C 379.042969 115.691406 375.960938 107.796875 375.308594 105.707031 L 375.238281 -10.769531 L 509.617188 -10.769531 L 509.6875 34.789062 C 509.679688 34.828125 509.65625 34.90625 509.628906 35.015625 L 509.550781 35.035156 C 509.550781 35.042969 509.566406 35.09375 509.585938 35.164062 C 508.871094 37.652344 504.460938 50.527344 489.730469 50.527344 L 489.730469 51.679688 C 502.027344 51.679688 507.570312 42.9375 509.691406 38.125 L 509.730469 63.632812 L 496.554688 63.632812 L 496.554688 73.339844 C 469.613281 79.570312 449.472656 103.765625 449.472656 132.574219 C 449.472656 166.097656 476.738281 193.367188 510.253906 193.367188 C 543.769531 193.367188 571.035156 166.097656 571.035156 132.574219 C 571.035156 103.816406 550.964844 79.660156 524.101562 73.375 L 524.101562 63.632812 L 510.882812 63.632812 L 510.847656 38.511719 C 513.089844 43.390625 518.664062 51.679688 530.636719 51.679688 L 530.636719 50.527344 C 516.289062 50.527344 511.730469 38.3125 510.839844 35.378906 L 510.769531 -10.769531 L 653.828125 -10.769531 L 653.90625 87.484375 L 653.894531 87.484375 C 653.886719 87.519531 653.863281 87.609375 653.824219 87.742188 L 653.78125 87.753906 C 653.78125 87.757812 653.789062 87.785156 653.800781 87.824219 C 653.210938 89.855469 649.699219 99.957031 638.09375 99.957031 L 638.09375 101.109375 C 647.585938 101.109375 652.066406 94.617188 653.90625 90.6875 L 653.921875 110.40625 L 643.417969 110.40625 L 643.417969 118.183594 C 621.941406 123.199219 605.886719 142.488281 605.886719 165.480469 C 605.886719 192.261719 627.675781 214.054688 654.453125 214.054688 C 681.234375 214.054688 703.015625 192.261719 703.015625 165.480469 C 703.015625 162.761719 702.792969 160.09375 702.359375 157.496094 Z M 374.703125 211.15625 C 357.222656 211.15625 342.332031 199.882812 336.90625 184.226562 C 338.828125 186.046875 341.429688 187.160156 344.28125 187.160156 C 348.894531 187.160156 352.820312 184.242188 354.328125 180.175781 C 355.6875 184.503906 359.761719 187.65625 364.5625 187.65625 C 369.269531 187.65625 373.265625 184.625 374.703125 180.425781 C 376.140625 184.625 380.136719 187.65625 384.84375 187.65625 C 389.550781 187.65625 393.550781 184.625 394.988281 180.425781 C 396.421875 184.625 400.417969 187.660156 405.125 187.660156 C 407.855469 187.660156 410.351562 186.640625 412.242188 184.964844 C 406.605469 200.242188 391.90625 211.15625 374.703125 211.15625 Z M 414.695312 171.160156 C 414.695312 174.980469 414.160156 178.671875 413.152344 182.175781 C 411.445312 184.777344 408.484375 186.507812 405.125 186.507812 C 399.855469 186.507812 395.5625 182.246094 395.5625 177.011719 L 394.410156 177.011719 C 394.410156 182.246094 390.117188 186.503906 384.84375 186.503906 C 379.570312 186.503906 375.28125 182.246094 375.28125 177.011719 L 374.128906 177.011719 C 374.128906 182.246094 369.835938 186.503906 364.5625 186.503906 C 359.289062 186.503906 354.996094 182.246094 354.996094 177.011719 L 354.96875 177.011719 C 354.976562 176.84375 354.996094 176.679688 354.996094 176.511719 L 353.84375 176.511719 C 353.84375 181.75 349.550781 186.007812 344.28125 186.007812 C 340.753906 186.007812 337.667969 184.105469 336.011719 181.277344 C 336.007812 181.277344 336.011719 181.269531 336.011719 181.269531 C 335.167969 178.039062 334.714844 174.65625 334.714844 171.160156 C 334.714844 170.59375 334.726562 170.03125 334.757812 169.464844 C 336.53125 172.898438 340.132812 175.25 344.28125 175.25 C 348.894531 175.25 352.820312 172.335938 354.328125 168.265625 C 355.6875 172.59375 359.761719 175.746094 364.5625 175.746094 C 369.269531 175.746094 373.265625 172.714844 374.703125 168.515625 C 376.140625 172.714844 380.136719 175.746094 384.84375 175.746094 C 389.550781 175.746094 393.550781 172.714844 394.988281 168.515625 C 396.421875 172.714844 400.417969 175.746094 405.125 175.746094 C 409.285156 175.746094 412.902344 173.378906 414.679688 169.925781 C 414.6875 170.335938 414.695312 170.746094 414.695312 171.160156 Z M 414.488281 167.070312 L 414.488281 167.074219 C 413.566406 171.367188 409.722656 174.59375 405.125 174.59375 C 399.855469 174.59375 395.5625 170.335938 395.5625 165.101562 L 394.410156 165.101562 C 394.410156 170.335938 390.117188 174.59375 384.84375 174.59375 C 379.570312 174.59375 375.28125 170.335938 375.28125 165.101562 L 374.128906 165.101562 C 374.128906 170.335938 369.835938 174.59375 364.5625 174.59375 C 359.289062 174.59375 354.996094 170.335938 354.996094 165.101562 L 354.96875 165.101562 C 354.976562 164.933594 354.996094 164.773438 354.996094 164.605469 L 353.84375 164.605469 C 353.84375 169.839844 349.550781 174.097656 344.28125 174.097656 C 339.738281 174.097656 335.9375 170.953125 334.964844 166.742188 C 337.164062 146.757812 354.140625 131.164062 374.703125 131.164062 C 395.375 131.164062 412.429688 146.929688 414.488281 167.070312 Z M 383.070312 125.671875 L 383.070312 130.875 C 380.367188 130.316406 377.570312 130.011719 374.703125 130.011719 C 371.871094 130.011719 369.109375 130.308594 366.4375 130.855469 L 366.4375 125.671875 Z M 569.882812 132.574219 C 569.882812 165.460938 543.132812 192.214844 510.253906 192.214844 C 477.375 192.214844 450.625 165.460938 450.625 132.574219 C 450.625 99.691406 477.375 72.9375 510.253906 72.9375 C 543.132812 72.9375 569.882812 99.691406 569.882812 132.574219 Z M 522.949219 64.785156 L 522.949219 73.121094 C 518.851562 72.246094 514.605469 71.785156 510.253906 71.785156 C 505.953125 71.785156 501.757812 72.234375 497.707031 73.089844 L 497.707031 64.785156 Z M 701.773438 162.566406 L 699.472656 160.027344 L 699.472656 160.023438 L 701.335938 158.394531 C 701.542969 159.765625 701.691406 161.160156 701.773438 162.566406 Z M 644.566406 111.558594 L 664.457031 111.558594 L 664.457031 117.949219 C 661.226562 117.273438 657.882812 116.902344 654.453125 116.902344 C 651.066406 116.902344 647.761719 117.253906 644.566406 117.917969 Z M 654.453125 118.054688 C 677.726562 118.054688 697.136719 134.90625 701.117188 157.058594 L 698.699219 159.171875 L 690.4375 150.046875 L 689.582031 150.820312 L 697.832031 159.933594 L 691.816406 165.203125 L 685.957031 158.980469 L 685.121094 159.769531 L 690.949219 165.960938 L 690.949219 165.964844 L 679.199219 176.253906 L 668.929688 167.519531 L 676.726562 159.785156 L 675.914062 158.96875 L 668.050781 166.765625 L 668.046875 166.765625 L 662.402344 161.964844 L 672.785156 151.429688 L 671.964844 150.621094 L 661.519531 161.222656 L 655.257812 155.894531 L 648.839844 161.644531 L 636.660156 150.597656 L 635.882812 151.453125 L 647.976562 162.421875 L 642.382812 167.425781 L 633.296875 159.53125 L 632.539062 160.402344 L 641.519531 168.203125 L 631.507812 177.175781 L 618.273438 166.320312 L 623.886719 160.363281 L 623.050781 159.570312 L 617.382812 165.585938 L 611.195312 160.507812 L 611.191406 160.507812 L 619.425781 151.414062 L 618.570312 150.640625 L 610.300781 159.777344 L 607.691406 157.632812 C 611.4375 135.199219 630.984375 118.054688 654.453125 118.054688 Z M 655.359375 169.113281 L 661.589844 162.789062 L 667.222656 167.582031 L 667.226562 167.585938 L 655.710938 179.003906 L 643.261719 168.191406 L 648.835938 163.199219 Z M 649.699219 162.425781 L 655.28125 157.425781 L 660.714844 162.039062 L 655.3125 167.519531 Z M 607.488281 158.957031 L 609.523438 160.628906 L 607.09375 163.316406 C 607.15625 161.84375 607.289062 160.390625 607.488281 158.957031 Z M 607.039062 165.480469 C 607.039062 165.34375 607.039062 165.199219 607.046875 165.0625 L 607.058594 165.074219 L 610.417969 161.363281 L 616.589844 166.429688 L 608.101562 175.445312 C 607.402344 172.230469 607.039062 168.894531 607.039062 165.480469 Z M 654.453125 212.902344 C 632.210938 212.902344 613.492188 197.5 608.410156 176.792969 L 617.484375 167.160156 L 617.484375 167.164062 L 631.535156 178.691406 L 642.394531 168.964844 L 655.761719 180.574219 L 668.105469 168.332031 L 679.210938 177.773438 L 691.738281 166.800781 L 691.738281 166.796875 L 700.632812 176.242188 C 695.746094 197.230469 676.898438 212.902344 654.453125 212.902344 Z M 700.925781 174.875 L 692.605469 166.039062 L 698.605469 160.785156 L 701.847656 164.367188 C 701.859375 164.738281 701.863281 165.105469 701.863281 165.480469 C 701.863281 168.695312 701.542969 171.832031 700.925781 174.875 Z M 366.585938 149.863281 C 365.203125 149.277344 364.28125 148.273438 363.742188 146.886719 C 363.375 145.945312 363.136719 144.96875 362.929688 143.984375 C 362.847656 143.585938 362.769531 143.1875 362.671875 142.789062 C 362.601562 143.15625 362.53125 143.523438 362.457031 143.890625 C 362.226562 144.976562 361.972656 146.058594 361.539062 147.089844 C 360.957031 148.476562 359.953125 149.410156 358.5625 149.953125 C 357.617188 150.324219 356.636719 150.5625 355.644531 150.769531 C 355.25 150.851562 354.851562 150.925781 354.421875 151.011719 C 355.003906 151.132812 355.558594 151.238281 356.109375 151.359375 C 357.054688 151.570312 357.988281 151.820312 358.875 152.210938 C 360.171875 152.78125 361.050781 153.738281 361.582031 155.039062 C 361.953125 155.953125 362.191406 156.902344 362.398438 157.863281 C 362.496094 158.320312 362.582031 158.785156 362.683594 159.285156 C 362.75 158.9375 362.808594 158.628906 362.871094 158.324219 C 363.121094 157.117188 363.390625 155.914062 363.898438 154.78125 C 364.46875 153.503906 365.421875 152.636719 366.707031 152.113281 C 367.621094 151.742188 368.570312 151.503906 369.535156 151.300781 C 369.992188 151.203125 370.449219 151.113281 370.90625 151.023438 C 370.90625 151.015625 370.910156 151.011719 370.910156 151.003906 C 370.605469 150.945312 370.300781 150.886719 370 150.824219 C 368.839844 150.585938 367.683594 150.328125 366.585938 149.863281 Z M 366.273438 151.046875 C 364.679688 151.695312 363.527344 152.792969 362.847656 154.308594 C 362.789062 154.4375 362.734375 154.5625 362.683594 154.691406 C 362.671875 154.664062 362.660156 154.632812 362.648438 154.605469 C 361.992188 152.992188 360.878906 151.832031 359.339844 151.15625 C 359.230469 151.109375 359.117188 151.0625 359.007812 151.015625 C 360.707031 150.347656 361.914062 149.175781 362.601562 147.535156 C 362.628906 147.472656 362.65625 147.40625 362.679688 147.339844 C 363.347656 149.03125 364.511719 150.234375 366.136719 150.921875 C 366.210938 150.953125 366.28125 150.984375 366.355469 151.011719 C 366.328125 151.023438 366.300781 151.035156 366.273438 151.046875 Z M 381.058594 163.238281 C 382.351562 163.808594 383.230469 164.761719 383.761719 166.066406 C 384.132812 166.980469 384.371094 167.929688 384.578125 168.890625 C 384.675781 169.347656 384.761719 169.808594 384.863281 170.3125 C 384.929688 169.964844 384.988281 169.65625 385.050781 169.351562 C 385.300781 168.144531 385.570312 166.941406 386.078125 165.804688 C 386.652344 164.53125 387.601562 163.664062 388.886719 163.140625 C 389.800781 162.769531 390.753906 162.53125 391.714844 162.324219 C 392.171875 162.226562 392.628906 162.140625 393.085938 162.050781 C 393.085938 162.042969 393.089844 162.039062 393.089844 162.03125 C 392.785156 161.972656 392.480469 161.914062 392.179688 161.851562 C 391.019531 161.613281 389.867188 161.351562 388.765625 160.886719 C 387.386719 160.304688 386.460938 159.296875 385.917969 157.914062 C 385.554688 156.972656 385.316406 155.992188 385.109375 155.011719 C 385.027344 154.613281 384.949219 154.214844 384.851562 153.816406 C 384.78125 154.183594 384.710938 154.550781 384.636719 154.917969 C 384.40625 156.003906 384.152344 157.085938 383.71875 158.117188 C 383.136719 159.503906 382.132812 160.4375 380.742188 160.980469 C 379.796875 161.347656 378.816406 161.589844 377.824219 161.796875 C 377.429688 161.878906 377.03125 161.953125 376.601562 162.039062 C 377.1875 162.160156 377.738281 162.261719 378.289062 162.386719 C 379.234375 162.597656 380.167969 162.84375 381.058594 163.238281 Z M 384.78125 158.5625 C 384.808594 158.5 384.832031 158.433594 384.859375 158.367188 C 385.527344 160.054688 386.691406 161.261719 388.316406 161.949219 C 388.390625 161.980469 388.464844 162.011719 388.535156 162.039062 C 388.507812 162.050781 388.480469 162.0625 388.453125 162.074219 C 386.859375 162.722656 385.707031 163.820312 385.027344 165.335938 C 384.96875 165.460938 384.914062 165.589844 384.863281 165.71875 C 384.851562 165.6875 384.839844 165.660156 384.828125 165.632812 C 384.175781 164.019531 383.0625 162.859375 381.523438 162.183594 C 381.410156 162.132812 381.296875 162.085938 381.1875 162.042969 C 382.886719 161.371094 384.09375 160.203125 384.78125 158.5625 Z M 398.234375 154.59375 C 399.09375 154.972656 399.679688 155.605469 400.03125 156.46875 C 400.277344 157.074219 400.433594 157.707031 400.570312 158.34375 C 400.636719 158.644531 400.691406 158.953125 400.761719 159.285156 C 400.804688 159.054688 400.84375 158.851562 400.886719 158.648438 C 401.050781 157.847656 401.230469 157.050781 401.566406 156.296875 C 401.945312 155.453125 402.578125 154.875 403.429688 154.527344 C 404.035156 154.285156 404.664062 154.125 405.304688 153.988281 C 405.605469 153.925781 405.910156 153.867188 406.214844 153.804688 C 406.214844 153.800781 406.214844 153.800781 406.214844 153.792969 C 406.015625 153.753906 405.8125 153.714844 405.613281 153.675781 C 404.84375 153.515625 404.078125 153.34375 403.347656 153.035156 C 402.433594 152.648438 401.820312 151.980469 401.460938 151.0625 C 401.21875 150.4375 401.058594 149.789062 400.925781 149.136719 C 400.867188 148.875 400.820312 148.609375 400.753906 148.34375 C 400.707031 148.589844 400.660156 148.832031 400.609375 149.078125 C 400.457031 149.796875 400.289062 150.515625 400 151.199219 C 399.617188 152.117188 398.949219 152.738281 398.027344 153.097656 C 397.402344 153.339844 396.75 153.5 396.09375 153.636719 C 395.832031 153.691406 395.566406 153.742188 395.28125 153.800781 C 395.667969 153.878906 396.035156 153.949219 396.398438 154.027344 C 397.027344 154.167969 397.644531 154.332031 398.234375 154.59375 Z M 400.761719 152.25 C 401.148438 152.898438 401.667969 153.417969 402.3125 153.800781 C 401.660156 154.1875 401.140625 154.707031 400.757812 155.351562 C 400.371094 154.699219 399.851562 154.179688 399.207031 153.800781 C 399.859375 153.414062 400.378906 152.894531 400.761719 152.25 Z M 347.449219 162.636719 C 346.53125 162.25 345.917969 161.582031 345.558594 160.664062 C 345.316406 160.039062 345.160156 159.390625 345.023438 158.738281 C 344.96875 158.476562 344.917969 158.210938 344.851562 157.945312 C 344.804688 158.191406 344.757812 158.433594 344.707031 158.675781 C 344.554688 159.398438 344.386719 160.113281 344.101562 160.796875 C 343.714844 161.71875 343.046875 162.335938 342.125 162.695312 C 341.5 162.941406 340.851562 163.101562 340.191406 163.238281 C 339.929688 163.292969 339.664062 163.34375 339.378906 163.398438 C 339.769531 163.480469 340.136719 163.546875 340.5 163.628906 C 341.125 163.769531 341.746094 163.933594 342.335938 164.195312 C 343.195312 164.574219 343.777344 165.207031 344.128906 166.070312 C 344.375 166.675781 344.535156 167.304688 344.671875 167.941406 C 344.734375 168.246094 344.792969 168.554688 344.859375 168.886719 C 344.902344 168.65625 344.941406 168.453125 344.984375 168.25 C 345.148438 167.449219 345.328125 166.652344 345.664062 165.898438 C 346.042969 165.050781 346.675781 164.476562 347.527344 164.128906 C 348.132812 163.882812 348.765625 163.726562 349.402344 163.589844 C 349.707031 163.523438 350.007812 163.46875 350.3125 163.40625 C 350.3125 163.402344 350.3125 163.398438 350.3125 163.394531 C 350.113281 163.355469 349.910156 163.316406 349.710938 163.277344 C 348.941406 163.117188 348.175781 162.945312 347.449219 162.636719 Z M 344.859375 164.953125 C 344.472656 164.300781 343.953125 163.78125 343.308594 163.398438 C 343.957031 163.011719 344.476562 162.492188 344.859375 161.847656 C 345.246094 162.5 345.765625 163.019531 346.410156 163.402344 C 345.757812 163.789062 345.238281 164.308594 344.859375 164.953125 Z M 344.859375 164.953125 " fill-opacity="1" fill-rule="nonzero"/></g><g clip-path="url(#becb79c59c)"><path fill="#000000" d="M 913.738281 83.507812 C 913.738281 85.558594 915.230469 87.261719 917.183594 87.605469 L 917.199219 97.996094 C 911.742188 97.636719 907.410156 93.125 907.410156 87.617188 L 906.257812 87.617188 C 906.257812 93.761719 911.105469 98.785156 917.203125 99.148438 L 917.230469 119.039062 L 917.179688 119.039062 C 917.179688 123.890625 915.804688 127.089844 913.878906 129.199219 L 903.972656 118.667969 C 904.417969 118.003906 904.679688 117.203125 904.679688 116.34375 C 904.679688 114.046875 902.8125 112.179688 900.515625 112.179688 C 899.75 112.179688 899.03125 112.390625 898.414062 112.757812 L 895.101562 109.238281 L 895.101562 97.507812 L 893.949219 97.507812 L 893.949219 108.011719 L 888.789062 102.527344 L 887.949219 103.316406 L 892.753906 108.421875 L 882.21875 108.421875 L 882.21875 109.574219 L 893.839844 109.574219 L 897.507812 113.476562 C 896.792969 114.222656 896.351562 115.230469 896.351562 116.34375 C 896.351562 118.640625 898.222656 120.507812 900.515625 120.507812 C 901.539062 120.507812 902.472656 120.136719 903.199219 119.527344 L 913.0625 130.011719 C 910.027344 132.6875 906.050781 133.15625 903.765625 133.175781 C 903.410156 133.152344 903.050781 133.140625 902.679688 133.140625 L 902.675781 133.1875 L 881.429688 133.15625 C 881.371094 130.210938 880.242188 127.4375 878.195312 125.308594 C 876.050781 123.074219 873.164062 121.8125 870.074219 121.761719 L 870.054688 122.914062 C 872.835938 122.960938 875.433594 124.09375 877.367188 126.109375 C 879.203125 128.019531 880.21875 130.507812 880.277344 133.152344 L 872.265625 133.140625 C 872.128906 130.96875 870.324219 129.242188 868.113281 129.242188 C 865.820312 129.242188 863.949219 131.109375 863.949219 133.402344 C 863.949219 135.699219 865.820312 137.570312 868.113281 137.570312 C 870.105469 137.570312 871.769531 136.164062 872.179688 134.292969 L 880.242188 134.304688 C 879.78125 139.6875 875.296875 143.894531 869.875 143.894531 C 869.816406 143.894531 869.757812 143.894531 869.699219 143.894531 L 869.679688 145.046875 C 869.746094 145.046875 869.808594 145.046875 869.875 145.046875 C 875.925781 145.046875 880.929688 140.324219 881.394531 134.308594 L 903.886719 134.34375 C 907.636719 134.636719 910.449219 136.304688 912.507812 138.296875 L 910.167969 140.785156 L 905.105469 146.167969 C 904.417969 145.675781 903.582031 145.382812 902.679688 145.382812 C 900.382812 145.382812 898.515625 147.25 898.515625 149.546875 C 898.515625 150.542969 898.867188 151.457031 899.453125 152.175781 L 895.777344 156.082031 L 884.136719 156.082031 L 884.136719 157.234375 L 894.691406 157.234375 L 889.121094 163.15625 L 889.960938 163.949219 L 895.871094 157.664062 L 895.871094 168.148438 L 897.023438 168.148438 L 897.023438 156.4375 L 900.296875 152.957031 C 900.972656 153.429688 901.792969 153.710938 902.679688 153.710938 C 904.976562 153.710938 906.84375 151.84375 906.84375 149.546875 C 906.84375 148.570312 906.503906 147.671875 905.9375 146.960938 L 911.003906 141.574219 L 913.304688 139.132812 C 915.808594 141.917969 916.980469 145.027344 917.273438 145.882812 L 917.304688 167.601562 C 911.160156 167.914062 906.257812 172.964844 906.257812 179.140625 L 907.410156 179.140625 C 907.410156 173.597656 911.796875 169.0625 917.304688 168.753906 L 917.320312 179.257812 C 915.300781 179.542969 913.738281 181.28125 913.738281 183.378906 C 913.738281 185.675781 915.605469 187.542969 917.902344 187.542969 C 920.195312 187.542969 922.0625 185.675781 922.0625 183.378906 C 922.0625 181.277344 920.5 179.539062 918.472656 179.257812 L 918.457031 168.753906 C 923.984375 169.042969 928.394531 173.585938 928.394531 179.140625 L 929.546875 179.140625 C 929.546875 172.949219 924.617188 167.890625 918.457031 167.601562 L 918.425781 146.214844 L 918.453125 146.128906 C 918.472656 146.066406 919.527344 142.753906 922.128906 139.648438 L 927.542969 145.40625 C 926.945312 146.128906 926.585938 147.050781 926.585938 148.058594 C 926.585938 150.355469 928.453125 152.222656 930.75 152.222656 C 931.667969 152.222656 932.511719 151.921875 933.199219 151.421875 L 937.351562 155.832031 L 937.351562 167.046875 L 938.503906 167.046875 L 938.503906 157.054688 L 944.671875 163.613281 L 945.511719 162.824219 L 939.214844 156.132812 L 950.238281 156.132812 L 950.238281 154.980469 L 938.132812 154.980469 L 934.03125 150.617188 C 934.582031 149.914062 934.914062 149.023438 934.914062 148.058594 C 934.914062 145.765625 933.046875 143.894531 930.75 143.894531 C 929.875 143.894531 929.066406 144.167969 928.394531 144.628906 L 922.902344 138.789062 C 924.929688 136.660156 927.742188 134.796875 931.511719 134.382812 L 953.792969 134.417969 C 954.3125 140.382812 959.292969 145.046875 965.308594 145.046875 C 965.375 145.046875 965.441406 145.046875 965.507812 145.046875 L 965.488281 143.894531 C 960.007812 143.992188 955.464844 139.804688 954.949219 134.417969 L 963.996094 134.433594 C 964.453125 136.234375 966.085938 137.566406 968.023438 137.566406 C 970.320312 137.566406 972.191406 135.699219 972.191406 133.402344 C 972.191406 131.109375 970.320312 129.242188 968.023438 129.242188 C 965.769531 129.242188 963.933594 131.042969 963.867188 133.28125 L 954.902344 133.265625 C 954.972656 127.625 959.492188 123.007812 965.128906 122.914062 L 965.109375 121.761719 C 958.84375 121.867188 953.824219 126.996094 953.75 133.265625 L 933.117188 133.234375 L 933.121094 133.140625 C 932.742188 133.117188 926.9375 132.71875 922.714844 129.125 L 928.566406 122.90625 C 929.144531 123.210938 929.800781 123.386719 930.5 123.386719 C 932.796875 123.386719 934.664062 121.519531 934.664062 119.222656 C 934.664062 118.433594 934.4375 117.699219 934.054688 117.070312 L 937.570312 113.332031 L 949.191406 113.332031 L 949.191406 112.179688 L 938.65625 112.179688 L 946.679688 103.648438 L 945.839844 102.859375 L 937.457031 111.773438 L 937.457031 101.265625 L 936.304688 101.265625 L 936.304688 112.996094 L 933.320312 116.167969 C 932.578125 115.480469 931.589844 115.058594 930.5 115.058594 C 928.203125 115.058594 926.335938 116.925781 926.335938 119.222656 C 926.335938 120.402344 926.828125 121.46875 927.621094 122.226562 L 921.875 128.339844 C 920.046875 126.480469 918.660156 123.90625 918.386719 120.339844 L 918.355469 99.160156 C 924.566406 98.921875 929.546875 93.84375 929.546875 87.617188 L 928.394531 87.617188 C 928.394531 93.207031 923.929688 97.769531 918.351562 98.007812 L 918.335938 87.648438 C 920.429688 87.429688 922.0625 85.65625 922.0625 83.507812 C 922.0625 81.210938 920.195312 79.34375 917.902344 79.34375 C 915.605469 79.34375 913.738281 81.210938 913.738281 83.507812 Z M 900.515625 119.355469 C 898.855469 119.355469 897.503906 118.007812 897.503906 116.34375 C 897.503906 114.683594 898.855469 113.332031 900.515625 113.332031 C 902.175781 113.332031 903.527344 114.683594 903.527344 116.34375 C 903.527344 118.007812 902.175781 119.355469 900.515625 119.355469 Z M 868.113281 136.417969 C 866.453125 136.417969 865.101562 135.066406 865.101562 133.402344 C 865.101562 131.742188 866.453125 130.394531 868.113281 130.394531 C 869.777344 130.394531 871.125 131.742188 871.125 133.402344 C 871.125 135.066406 869.777344 136.417969 868.113281 136.417969 Z M 902.679688 152.558594 C 901.019531 152.558594 899.667969 151.207031 899.667969 149.546875 C 899.667969 147.886719 901.019531 146.535156 902.679688 146.535156 C 904.339844 146.535156 905.691406 147.886719 905.691406 149.546875 C 905.691406 151.207031 904.339844 152.558594 902.679688 152.558594 Z M 930.75 145.046875 C 932.410156 145.046875 933.761719 146.398438 933.761719 148.058594 C 933.761719 149.722656 932.410156 151.074219 930.75 151.074219 C 929.089844 151.074219 927.738281 149.722656 927.738281 148.058594 C 927.738281 146.398438 929.089844 145.046875 930.75 145.046875 Z M 968.023438 130.394531 C 969.6875 130.394531 971.039062 131.742188 971.039062 133.402344 C 971.039062 135.066406 969.6875 136.417969 968.023438 136.417969 C 966.363281 136.417969 965.011719 135.066406 965.011719 133.402344 C 965.011719 131.742188 966.363281 130.394531 968.023438 130.394531 Z M 927.484375 119.222656 C 927.484375 117.5625 928.835938 116.210938 930.5 116.210938 C 932.160156 116.210938 933.511719 117.5625 933.511719 119.222656 C 933.511719 120.882812 932.160156 122.234375 930.5 122.234375 C 928.835938 122.234375 927.484375 120.882812 927.484375 119.222656 Z M 920.910156 183.378906 C 920.910156 185.039062 919.5625 186.390625 917.902344 186.390625 C 916.242188 186.390625 914.890625 185.039062 914.890625 183.378906 C 914.890625 181.71875 916.242188 180.367188 917.902344 180.367188 C 919.5625 180.367188 920.910156 181.71875 920.910156 183.378906 Z M 929.308594 133.609375 C 922.5625 135.355469 919.152344 141.515625 917.914062 144.347656 C 916.773438 141.648438 913.707031 135.953125 907.527344 133.898438 C 911.339844 133.054688 916.296875 130.617188 917.847656 123.738281 C 919.777344 130.003906 925.460938 132.570312 929.308594 133.609375 Z M 920.910156 83.507812 C 920.910156 85.167969 919.5625 86.519531 917.902344 86.519531 C 916.242188 86.519531 914.890625 85.167969 914.890625 83.507812 C 914.890625 81.847656 916.242188 80.496094 917.902344 80.496094 C 919.5625 80.496094 920.910156 81.847656 920.910156 83.507812 Z M 1110.007812 157.496094 C 1109.945312 157.105469 1109.875 156.710938 1109.792969 156.324219 C 1106.203125 137.539062 1091.757812 122.570312 1073.257812 118.203125 L 1073.257812 110.40625 L 1062.722656 110.40625 L 1062.707031 91.046875 C 1064.652344 95.003906 1069.144531 101.109375 1078.351562 101.109375 L 1078.351562 99.957031 C 1067.109375 99.957031 1063.457031 90.476562 1062.707031 88.039062 L 1062.628906 -10.769531 L 1108.890625 -10.769531 L 1108.890625 -11.921875 L 737.015625 -11.921875 L 737.015625 -10.769531 L 781.734375 -10.769531 L 781.800781 105.214844 L 781.789062 105.210938 C 781.78125 105.246094 781.757812 105.339844 781.71875 105.476562 L 781.695312 105.484375 C 781.695312 105.484375 781.699219 105.5 781.707031 105.523438 C 781.1875 107.285156 778.214844 115.691406 768.523438 115.691406 L 768.523438 116.84375 C 776.324219 116.84375 780.140625 111.683594 781.804688 108.320312 L 781.816406 124.519531 L 772.933594 124.519531 L 772.933594 131.101562 C 756.855469 134.882812 744.382812 148.125 741.738281 164.605469 C 741.617188 165.332031 741.515625 166.0625 741.441406 166.800781 C 741.292969 168.234375 741.210938 169.683594 741.210938 171.160156 C 741.210938 172.976562 741.328125 174.761719 741.558594 176.511719 C 741.789062 178.285156 742.132812 180.015625 742.582031 181.707031 L 742.582031 181.714844 C 747.253906 199.308594 763.3125 212.308594 782.351562 212.308594 C 801.054688 212.308594 816.882812 199.761719 821.863281 182.640625 C 822.394531 180.816406 822.804688 178.9375 823.082031 177.011719 C 823.351562 175.101562 823.496094 173.148438 823.496094 171.160156 C 823.496094 169.800781 823.425781 168.453125 823.300781 167.128906 C 823.230469 166.449219 823.148438 165.769531 823.050781 165.101562 C 820.574219 148.425781 808.0625 134.976562 791.871094 131.125 L 791.871094 124.519531 L 782.96875 124.519531 L 782.957031 108.632812 C 784.699219 111.996094 788.523438 116.84375 796.085938 116.84375 L 796.085938 115.691406 C 786.6875 115.691406 783.605469 107.796875 782.957031 105.707031 L 782.886719 -10.769531 L 917.265625 -10.769531 L 917.335938 34.789062 C 917.324219 34.828125 917.304688 34.90625 917.273438 35.015625 L 917.199219 35.035156 C 917.199219 35.042969 917.214844 35.09375 917.234375 35.164062 C 916.519531 37.652344 912.109375 50.527344 897.378906 50.527344 L 897.378906 51.679688 C 909.671875 51.679688 915.21875 42.9375 917.339844 38.125 L 917.378906 63.632812 L 904.199219 63.632812 L 904.199219 73.339844 C 877.261719 79.570312 857.121094 103.765625 857.121094 132.574219 C 857.121094 166.097656 884.386719 193.367188 917.902344 193.367188 C 951.414062 193.367188 978.683594 166.097656 978.683594 132.574219 C 978.683594 103.816406 958.613281 79.660156 931.746094 73.375 L 931.746094 63.632812 L 918.53125 63.632812 L 918.492188 38.511719 C 920.738281 43.390625 926.3125 51.679688 938.285156 51.679688 L 938.285156 50.527344 C 923.9375 50.527344 919.378906 38.3125 918.488281 35.378906 L 918.417969 -10.769531 L 1061.476562 -10.769531 L 1061.554688 87.484375 L 1061.539062 87.484375 C 1061.53125 87.519531 1061.507812 87.609375 1061.472656 87.742188 L 1061.429688 87.753906 C 1061.429688 87.757812 1061.4375 87.785156 1061.449219 87.824219 C 1060.859375 89.855469 1057.347656 99.957031 1045.742188 99.957031 L 1045.742188 101.109375 C 1055.234375 101.109375 1059.710938 94.617188 1061.554688 90.6875 L 1061.570312 110.40625 L 1051.0625 110.40625 L 1051.0625 118.183594 C 1029.589844 123.199219 1013.535156 142.488281 1013.535156 165.480469 C 1013.535156 192.261719 1035.324219 214.054688 1062.101562 214.054688 C 1088.882812 214.054688 1110.664062 192.261719 1110.664062 165.480469 C 1110.664062 162.761719 1110.441406 160.09375 1110.007812 157.496094 Z M 782.351562 211.15625 C 764.871094 211.15625 749.980469 199.882812 744.554688 184.226562 C 746.476562 186.046875 749.074219 187.160156 751.925781 187.160156 C 756.539062 187.160156 760.46875 184.242188 761.976562 180.175781 C 763.335938 184.503906 767.410156 187.65625 772.210938 187.65625 C 776.917969 187.65625 780.914062 184.625 782.351562 180.425781 C 783.789062 184.625 787.785156 187.65625 792.492188 187.65625 C 797.199219 187.65625 801.195312 184.625 802.632812 180.425781 C 804.070312 184.625 808.066406 187.660156 812.773438 187.660156 C 815.503906 187.660156 818 186.640625 819.890625 184.964844 C 814.253906 200.242188 799.554688 211.15625 782.351562 211.15625 Z M 822.34375 171.160156 C 822.34375 174.980469 821.808594 178.671875 820.800781 182.175781 C 819.09375 184.777344 816.132812 186.507812 812.773438 186.507812 C 807.503906 186.507812 803.210938 182.246094 803.210938 177.011719 L 802.058594 177.011719 C 802.058594 182.246094 797.765625 186.503906 792.492188 186.503906 C 787.21875 186.503906 782.925781 182.246094 782.925781 177.011719 L 781.773438 177.011719 C 781.773438 182.246094 777.484375 186.503906 772.210938 186.503906 C 766.9375 186.503906 762.644531 182.246094 762.644531 177.011719 L 762.617188 177.011719 C 762.625 176.84375 762.644531 176.679688 762.644531 176.511719 L 761.492188 176.511719 C 761.492188 181.75 757.199219 186.007812 751.925781 186.007812 C 748.402344 186.007812 745.3125 184.105469 743.660156 181.277344 C 743.65625 181.277344 743.660156 181.269531 743.660156 181.269531 C 742.8125 178.039062 742.363281 174.65625 742.363281 171.160156 C 742.363281 170.59375 742.375 170.03125 742.40625 169.464844 C 744.179688 172.898438 747.78125 175.25 751.925781 175.25 C 756.542969 175.25 760.46875 172.335938 761.976562 168.265625 C 763.335938 172.59375 767.410156 175.746094 772.210938 175.746094 C 776.917969 175.746094 780.914062 172.714844 782.351562 168.515625 C 783.789062 172.714844 787.785156 175.746094 792.492188 175.746094 C 797.199219 175.746094 801.199219 172.714844 802.632812 168.515625 C 804.070312 172.714844 808.066406 175.746094 812.773438 175.746094 C 816.933594 175.746094 820.550781 173.378906 822.324219 169.925781 C 822.335938 170.335938 822.34375 170.746094 822.34375 171.160156 Z M 822.136719 167.070312 L 822.136719 167.074219 C 821.214844 171.367188 817.371094 174.59375 812.773438 174.59375 C 807.503906 174.59375 803.210938 170.335938 803.210938 165.101562 L 802.058594 165.101562 C 802.058594 170.335938 797.765625 174.59375 792.492188 174.59375 C 787.21875 174.59375 782.925781 170.335938 782.925781 165.101562 L 781.773438 165.101562 C 781.773438 170.335938 777.484375 174.59375 772.210938 174.59375 C 766.9375 174.59375 762.644531 170.335938 762.644531 165.101562 L 762.617188 165.101562 C 762.625 164.933594 762.644531 164.773438 762.644531 164.605469 L 761.492188 164.605469 C 761.492188 169.839844 757.199219 174.097656 751.925781 174.097656 C 747.386719 174.097656 743.585938 170.953125 742.613281 166.742188 C 744.8125 146.757812 761.789062 131.164062 782.351562 131.164062 C 803.019531 131.164062 820.078125 146.929688 822.136719 167.070312 Z M 790.71875 125.671875 L 790.71875 130.875 C 788.015625 130.316406 785.21875 130.011719 782.351562 130.011719 C 779.519531 130.011719 776.757812 130.308594 774.085938 130.855469 L 774.085938 125.671875 Z M 977.53125 132.574219 C 977.53125 165.460938 950.78125 192.214844 917.902344 192.214844 C 885.023438 192.214844 858.273438 165.460938 858.273438 132.574219 C 858.273438 99.691406 885.023438 72.9375 917.902344 72.9375 C 950.78125 72.9375 977.53125 99.691406 977.53125 132.574219 Z M 930.59375 64.785156 L 930.59375 73.121094 C 926.5 72.246094 922.253906 71.785156 917.902344 71.785156 C 913.601562 71.785156 909.402344 72.234375 905.351562 73.089844 L 905.351562 64.785156 Z M 1109.421875 162.566406 L 1107.121094 160.027344 L 1107.121094 160.023438 L 1108.984375 158.394531 C 1109.191406 159.765625 1109.339844 161.160156 1109.421875 162.566406 Z M 1052.214844 111.558594 L 1072.105469 111.558594 L 1072.105469 117.949219 C 1068.875 117.273438 1065.53125 116.902344 1062.101562 116.902344 C 1058.714844 116.902344 1055.410156 117.253906 1052.214844 117.917969 Z M 1062.101562 118.054688 C 1085.375 118.054688 1104.78125 134.90625 1108.765625 157.058594 L 1106.34375 159.171875 L 1098.085938 150.046875 L 1097.230469 150.820312 L 1105.480469 159.933594 L 1099.464844 165.203125 L 1093.605469 158.980469 L 1092.769531 159.769531 L 1098.597656 165.960938 L 1098.59375 165.964844 L 1086.847656 176.253906 L 1076.574219 167.519531 L 1084.375 159.785156 L 1083.5625 158.96875 L 1075.699219 166.765625 L 1075.695312 166.765625 L 1070.050781 161.964844 L 1080.433594 151.429688 L 1079.613281 150.621094 L 1069.167969 161.222656 L 1062.90625 155.894531 L 1056.488281 161.644531 L 1056.484375 161.644531 L 1044.304688 150.597656 L 1043.53125 151.453125 L 1055.625 162.421875 L 1050.03125 167.425781 L 1040.945312 159.53125 L 1040.1875 160.402344 L 1049.167969 168.203125 L 1039.15625 177.175781 L 1025.921875 166.320312 L 1031.535156 160.363281 L 1030.695312 159.570312 L 1025.03125 165.585938 L 1018.84375 160.507812 L 1018.839844 160.507812 L 1027.070312 151.414062 L 1026.21875 150.640625 L 1017.945312 159.777344 L 1015.339844 157.632812 C 1019.082031 135.199219 1038.628906 118.054688 1062.101562 118.054688 Z M 1063.007812 169.113281 L 1069.238281 162.789062 L 1074.871094 167.582031 L 1074.875 167.585938 L 1063.359375 179.003906 L 1050.910156 168.191406 L 1056.484375 163.199219 Z M 1057.347656 162.425781 L 1062.929688 157.425781 L 1068.359375 162.039062 L 1062.960938 167.519531 Z M 1015.136719 158.957031 L 1017.171875 160.628906 L 1014.738281 163.316406 C 1014.804688 161.84375 1014.9375 160.390625 1015.136719 158.957031 Z M 1014.6875 165.480469 C 1014.6875 165.34375 1014.6875 165.199219 1014.695312 165.0625 L 1014.703125 165.074219 L 1018.066406 161.363281 L 1024.238281 166.429688 L 1015.75 175.445312 C 1015.050781 172.230469 1014.6875 168.894531 1014.6875 165.480469 Z M 1062.101562 212.902344 C 1039.859375 212.902344 1021.140625 197.5 1016.058594 176.792969 L 1025.132812 167.160156 L 1025.132812 167.164062 L 1039.183594 178.691406 L 1050.042969 168.964844 L 1063.410156 180.574219 L 1075.753906 168.332031 L 1086.859375 177.773438 L 1099.386719 166.800781 L 1099.386719 166.796875 L 1108.28125 176.242188 C 1103.394531 197.230469 1084.542969 212.902344 1062.101562 212.902344 Z M 1108.574219 174.875 L 1100.253906 166.039062 L 1106.253906 160.785156 L 1109.496094 164.367188 C 1109.507812 164.738281 1109.511719 165.105469 1109.511719 165.480469 C 1109.511719 168.695312 1109.191406 171.832031 1108.574219 174.875 Z M 774.234375 149.863281 C 772.851562 149.277344 771.929688 148.273438 771.386719 146.886719 C 771.023438 145.945312 770.78125 144.96875 770.578125 143.984375 C 770.492188 143.585938 770.417969 143.1875 770.320312 142.789062 C 770.25 143.15625 770.179688 143.523438 770.101562 143.890625 C 769.875 144.976562 769.617188 146.058594 769.183594 147.089844 C 768.605469 148.476562 767.601562 149.410156 766.210938 149.953125 C 765.265625 150.324219 764.285156 150.5625 763.292969 150.769531 C 762.894531 150.851562 762.5 150.925781 762.070312 151.011719 C 762.652344 151.132812 763.207031 151.238281 763.753906 151.359375 C 764.703125 151.570312 765.636719 151.820312 766.523438 152.210938 C 767.820312 152.78125 768.699219 153.738281 769.230469 155.039062 C 769.601562 155.953125 769.839844 156.902344 770.046875 157.863281 C 770.144531 158.320312 770.230469 158.785156 770.332031 159.285156 C 770.398438 158.9375 770.457031 158.628906 770.519531 158.324219 C 770.769531 157.117188 771.035156 155.914062 771.546875 154.78125 C 772.117188 153.503906 773.070312 152.636719 774.355469 152.113281 C 775.269531 151.742188 776.21875 151.503906 777.183594 151.300781 C 777.636719 151.203125 778.09375 151.113281 778.554688 151.023438 C 778.554688 151.015625 778.558594 151.011719 778.558594 151.003906 C 778.253906 150.945312 777.949219 150.886719 777.648438 150.824219 C 776.484375 150.585938 775.332031 150.328125 774.234375 149.863281 Z M 773.921875 151.046875 C 772.328125 151.695312 771.171875 152.792969 770.492188 154.308594 C 770.4375 154.4375 770.382812 154.5625 770.332031 154.691406 C 770.320312 154.664062 770.308594 154.632812 770.296875 154.605469 C 769.640625 152.992188 768.527344 151.832031 766.988281 151.15625 C 766.878906 151.109375 766.765625 151.0625 766.652344 151.015625 C 768.351562 150.347656 769.5625 149.175781 770.246094 147.535156 C 770.273438 147.472656 770.300781 147.40625 770.328125 147.339844 C 770.996094 149.03125 772.160156 150.234375 773.785156 150.921875 C 773.859375 150.953125 773.929688 150.984375 774.003906 151.011719 C 773.976562 151.023438 773.949219 151.035156 773.921875 151.046875 Z M 788.703125 163.238281 C 790 163.808594 790.878906 164.761719 791.410156 166.066406 C 791.78125 166.980469 792.019531 167.929688 792.226562 168.890625 C 792.324219 169.347656 792.410156 169.808594 792.511719 170.3125 C 792.578125 169.964844 792.636719 169.65625 792.699219 169.351562 C 792.949219 168.144531 793.21875 166.941406 793.726562 165.804688 C 794.296875 164.53125 795.25 163.664062 796.535156 163.140625 C 797.449219 162.769531 798.402344 162.53125 799.363281 162.324219 C 799.820312 162.226562 800.277344 162.140625 800.734375 162.050781 C 800.734375 162.042969 800.734375 162.039062 800.734375 162.03125 C 800.433594 161.972656 800.128906 161.914062 799.828125 161.851562 C 798.667969 161.613281 797.511719 161.351562 796.414062 160.886719 C 795.035156 160.304688 794.109375 159.296875 793.566406 157.914062 C 793.203125 156.972656 792.964844 155.992188 792.757812 155.011719 C 792.671875 154.613281 792.597656 154.214844 792.5 153.816406 C 792.425781 154.183594 792.359375 154.550781 792.28125 154.917969 C 792.054688 156.003906 791.800781 157.085938 791.367188 158.117188 C 790.785156 159.503906 789.78125 160.4375 788.390625 160.980469 C 787.445312 161.347656 786.464844 161.589844 785.472656 161.796875 C 785.078125 161.878906 784.679688 161.953125 784.25 162.039062 C 784.832031 162.160156 785.386719 162.261719 785.9375 162.386719 C 786.878906 162.597656 787.816406 162.84375 788.703125 163.238281 Z M 792.425781 158.5625 C 792.457031 158.5 792.480469 158.433594 792.507812 158.367188 C 793.175781 160.054688 794.339844 161.261719 795.964844 161.949219 C 796.039062 161.980469 796.109375 162.011719 796.183594 162.039062 C 796.15625 162.050781 796.128906 162.0625 796.101562 162.074219 C 794.507812 162.722656 793.355469 163.820312 792.671875 165.335938 C 792.617188 165.460938 792.5625 165.589844 792.511719 165.71875 C 792.5 165.6875 792.488281 165.660156 792.476562 165.632812 C 791.820312 164.019531 790.707031 162.859375 789.171875 162.183594 C 789.058594 162.132812 788.945312 162.085938 788.832031 162.042969 C 790.53125 161.371094 791.742188 160.203125 792.425781 158.5625 Z M 805.882812 154.59375 C 806.742188 154.972656 807.328125 155.605469 807.675781 156.46875 C 807.925781 157.074219 808.082031 157.707031 808.21875 158.34375 C 808.285156 158.644531 808.339844 158.953125 808.40625 159.285156 C 808.453125 159.054688 808.492188 158.851562 808.53125 158.648438 C 808.699219 157.847656 808.875 157.050781 809.214844 156.296875 C 809.59375 155.453125 810.226562 154.875 811.078125 154.527344 C 811.683594 154.285156 812.3125 154.125 812.953125 153.988281 C 813.253906 153.925781 813.558594 153.867188 813.863281 153.804688 C 813.863281 153.800781 813.863281 153.800781 813.863281 153.792969 C 813.660156 153.753906 813.460938 153.714844 813.261719 153.675781 C 812.492188 153.515625 811.726562 153.34375 810.996094 153.035156 C 810.082031 152.648438 809.46875 151.980469 809.109375 151.0625 C 808.867188 150.4375 808.707031 149.789062 808.570312 149.136719 C 808.515625 148.875 808.464844 148.609375 808.402344 148.34375 C 808.351562 148.589844 808.308594 148.832031 808.257812 149.078125 C 808.105469 149.796875 807.9375 150.515625 807.648438 151.199219 C 807.265625 152.117188 806.597656 152.738281 805.675781 153.097656 C 805.050781 153.339844 804.398438 153.5 803.742188 153.636719 C 803.476562 153.691406 803.214844 153.742188 802.929688 153.800781 C 803.316406 153.878906 803.683594 153.949219 804.046875 154.027344 C 804.675781 154.167969 805.292969 154.332031 805.882812 154.59375 Z M 808.410156 152.25 C 808.796875 152.898438 809.3125 153.417969 809.957031 153.800781 C 809.308594 154.1875 808.789062 154.707031 808.40625 155.351562 C 808.019531 154.699219 807.5 154.179688 806.855469 153.800781 C 807.507812 153.414062 808.027344 152.894531 808.410156 152.25 Z M 755.09375 162.636719 C 754.179688 162.25 753.566406 161.582031 753.207031 160.664062 C 752.964844 160.039062 752.808594 159.390625 752.671875 158.738281 C 752.613281 158.476562 752.566406 158.210938 752.5 157.945312 C 752.453125 158.191406 752.40625 158.433594 752.355469 158.675781 C 752.203125 159.398438 752.035156 160.113281 751.746094 160.796875 C 751.363281 161.71875 750.695312 162.335938 749.773438 162.695312 C 749.148438 162.941406 748.496094 163.101562 747.839844 163.238281 C 747.578125 163.292969 747.3125 163.34375 747.027344 163.398438 C 747.414062 163.480469 747.78125 163.546875 748.144531 163.628906 C 748.773438 163.769531 749.394531 163.933594 749.984375 164.195312 C 750.84375 164.574219 751.425781 165.207031 751.777344 166.070312 C 752.023438 166.675781 752.179688 167.304688 752.316406 167.941406 C 752.382812 168.246094 752.441406 168.554688 752.507812 168.886719 C 752.550781 168.65625 752.589844 168.453125 752.632812 168.25 C 752.796875 167.449219 752.976562 166.652344 753.3125 165.898438 C 753.691406 165.050781 754.324219 164.476562 755.175781 164.128906 C 755.78125 163.882812 756.414062 163.726562 757.050781 163.589844 C 757.355469 163.523438 757.65625 163.46875 757.960938 163.40625 C 757.960938 163.402344 757.960938 163.398438 757.960938 163.394531 C 757.761719 163.355469 757.558594 163.316406 757.359375 163.277344 C 756.589844 163.117188 755.824219 162.945312 755.09375 162.636719 Z M 752.507812 164.953125 C 752.117188 164.300781 751.597656 163.78125 750.953125 163.398438 C 751.605469 163.011719 752.125 162.492188 752.507812 161.847656 C 752.894531 162.5 753.414062 163.019531 754.058594 163.402344 C 753.40625 163.789062 752.886719 164.308594 752.507812 164.953125 Z M 752.507812 164.953125 " fill-opacity="1" fill-rule="nonzero"/></g></svg>