<svg xmlns="http://www.w3.org/2000/svg" xmlns:xlink="http://www.w3.org/1999/xlink" width="1080" zoomAndPan="magnify" viewBox="0 0 810 809.999993" height="1080" preserveAspectRatio="xMidYMid meet" version="1.0"><rect x="-81" width="972" fill="#ffffff" y="-80.999999" height="971.999992" fill-opacity="1"/><rect x="-81" width="972" fill="#f5f5f4" y="-80.999999" height="971.999992" fill-opacity="1"/><path fill="#000000" d="M 706.476562 578.921875 C 709.363281 576.382812 710.703125 572.480469 709.96875 568.707031 C 709.222656 564.957031 706.523438 561.824219 702.917969 560.5625 C 701.960938 560.214844 678.886719 551.8125 653.78125 532.109375 C 619.992188 505.585938 598.777344 472.265625 590.746094 433.0625 C 589.984375 429.34375 587.300781 426.273438 583.757812 425.027344 C 580.265625 423.785156 576.140625 424.515625 573.269531 426.839844 C 573.058594 427.011719 552.023438 443.789062 523.992188 445.199219 L 523.992188 401.71875 C 526.511719 401.46875 529.097656 401.335938 531.648438 401.335938 C 557.820312 401.335938 578.34375 414.480469 578.519531 414.613281 C 581.695312 416.691406 585.828125 416.949219 589.144531 415.320312 C 592.550781 413.726562 594.886719 410.390625 595.253906 406.640625 C 604.675781 311.429688 692.785156 268.664062 693.660156 268.242188 C 697.136719 266.625 699.496094 263.25 699.84375 259.421875 C 700.179688 255.613281 698.460938 251.855469 695.332031 249.625 C 649.75 217.257812 694.484375 118.949219 694.933594 117.9375 C 697.425781 112.515625 695.042969 106.070312 689.613281 103.578125 C 685.613281 101.777344 680.730469 102.601562 677.605469 105.609375 C 675.402344 107.6875 623.128906 156.597656 579.492188 156.597656 C 569.417969 156.597656 560.519531 153.898438 553.050781 148.59375 C 549.953125 146.414062 545.984375 145.933594 542.320312 147.550781 C 538.824219 149.144531 536.402344 152.496094 536.023438 156.277344 C 535.75 158.5625 529.050781 212.28125 490.226562 255.769531 C 484.800781 253.839844 479.113281 252.859375 473.320312 252.859375 L 438.015625 252.859375 L 438.015625 244.550781 C 461.601562 239.503906 479.128906 218.027344 479.128906 193.785156 C 479.128906 169.65625 443.820312 102.421875 436.722656 89.191406 C 434.855469 85.667969 431.203125 83.472656 427.1875 83.472656 C 423.1875 83.472656 419.53125 85.667969 417.625 89.191406 C 410.574219 102.429688 375.25 169.734375 375.25 193.777344 C 375.25 218.027344 392.792969 239.496094 416.363281 244.542969 L 416.363281 252.851562 L 381.074219 252.851562 C 353.132812 252.851562 330.410156 275.5625 330.410156 303.480469 L 330.410156 313.519531 C 273.257812 303.347656 235.382812 266.277344 235 265.878906 C 232.292969 263.21875 228.574219 262.082031 224.589844 263.109375 C 220.875 264.097656 217.941406 267 216.929688 270.6875 C 205.515625 312.050781 137.515625 316.507812 108.796875 316.507812 C 100.851562 316.507812 95.320312 316.179688 93.109375 316.035156 L 92.371094 316.019531 C 86.757812 316.019531 82.019531 320.375 81.558594 325.949219 C 81.179688 330.398438 83.550781 334.5625 87.558594 336.535156 C 91.542969 338.535156 185 386.371094 170.535156 438.867188 C 169.515625 442.578125 170.550781 446.566406 173.210938 449.289062 C 175.855469 452.027344 180.183594 453.117188 183.578125 452.238281 C 183.730469 452.207031 199.265625 448.472656 222.441406 448.472656 C 251.320312 448.472656 293.359375 454.398438 330.402344 482.5 L 330.402344 654.75 C 330.402344 660.707031 335.265625 665.554688 341.242188 665.554688 L 513.152344 665.554688 C 519.144531 665.554688 523.992188 660.707031 523.992188 654.75 L 523.992188 618.417969 C 549.539062 652.425781 557.308594 686.695312 557.640625 688.203125 C 558.449219 691.9375 561.199219 695.007812 564.832031 696.222656 C 568.421875 697.40625 572.566406 696.582031 575.394531 694.074219 C 583.703125 686.78125 594.453125 683.085938 607.332031 683.085938 C 650.769531 683.085938 703.160156 723.570312 703.714844 724 C 705.644531 725.46875 708 726.285156 710.367188 726.285156 C 712.265625 726.285156 714.164062 725.765625 715.867188 724.769531 C 721.003906 721.726562 722.710938 715.085938 719.667969 709.960938 C 719.121094 709.003906 664.722656 615.585938 706.476562 578.921875 Z M 438.023438 222.027344 L 438.023438 201.179688 C 438.023438 195.207031 433.160156 190.351562 427.195312 190.351562 C 421.21875 190.351562 416.355469 195.207031 416.355469 201.179688 L 416.355469 222.027344 C 404.761719 217.59375 396.902344 206.390625 396.902344 193.777344 C 396.902344 182.164062 412.753906 146.578125 427.195312 117.820312 C 441.632812 146.570312 457.476562 182.15625 457.476562 193.777344 C 457.476562 206.398438 449.617188 217.59375 438.023438 222.027344 Z M 523.992188 519.890625 L 619.339844 628.335938 C 623.152344 632.652344 630.328125 633.085938 634.613281 629.308594 C 636.785156 627.394531 638.09375 624.765625 638.28125 621.878906 C 638.46875 618.992188 637.519531 616.207031 635.601562 614.039062 L 523.992188 487.097656 L 523.992188 466.84375 C 545.316406 466.011719 563.113281 458.1875 573.300781 452.5625 C 587.300781 499.933594 617.617188 531.332031 640.847656 549.457031 C 656.429688 561.621094 671.113281 569.8125 681.417969 574.804688 C 659.253906 607.503906 672.117188 655.558594 683.953125 685.402344 C 662.964844 673.726562 634.359375 661.398438 607.199219 661.398438 C 595.144531 661.398438 584.171875 663.851562 574.566406 668.6875 C 568.109375 649.304688 553.5 615.167969 524 585.226562 L 524 519.890625 Z M 508.824219 267.378906 C 538.117188 233.351562 550.125 195.378906 554.863281 173.917969 C 562.433594 176.796875 570.667969 178.257812 579.363281 178.257812 C 609.003906 178.257812 639.703125 161.597656 661.9375 146.027344 C 653.230469 176.929688 645.417969 226.054688 670.832031 256.265625 C 661.074219 262.300781 647.324219 271.96875 633.074219 285.683594 C 611.851562 306.085938 584.949219 340.449219 575.921875 389.007812 C 565.316406 384.472656 549.8125 379.667969 531.859375 379.667969 C 529.214844 379.667969 526.566406 379.769531 523.984375 379.984375 L 523.984375 358.78125 L 621.214844 222.003906 C 624.644531 217.140625 623.511719 210.375 618.644531 206.921875 C 613.976562 203.578125 606.878906 204.773438 603.554688 209.472656 L 523.992188 321.40625 L 523.992188 303.480469 C 523.992188 289.914062 518.488281 276.886719 508.824219 267.378906 Z M 381.074219 274.503906 L 473.328125 274.503906 C 489.320312 274.503906 502.347656 287.503906 502.347656 303.488281 L 502.347656 385.75 C 502.347656 395.605469 494.324219 403.617188 484.457031 403.617188 C 474.605469 403.617188 466.597656 395.605469 466.597656 385.75 L 466.597656 304.148438 C 466.597656 298.175781 461.734375 293.3125 455.757812 293.3125 C 449.78125 293.3125 444.933594 298.175781 444.933594 304.148438 C 444.933594 313.996094 436.925781 322 427.058594 322 C 417.203125 322 409.179688 313.996094 409.179688 304.148438 C 409.179688 298.175781 404.332031 293.3125 398.355469 293.3125 C 392.378906 293.3125 387.515625 298.175781 387.515625 304.148438 L 387.515625 335.632812 C 387.515625 345.480469 379.492188 353.484375 369.65625 353.484375 C 360.933594 353.484375 353.34375 346.984375 352.035156 338.722656 L 352.050781 303.488281 C 352.066406 287.503906 365.078125 274.503906 381.074219 274.503906 Z M 408.996094 339.273438 C 420.046875 344.984375 433.875 345.023438 444.941406 339.390625 L 444.941406 385.75 C 444.941406 407.535156 462.675781 425.269531 484.457031 425.269531 C 490.722656 425.269531 496.816406 423.800781 502.347656 420.96875 L 502.347656 643.890625 L 352.066406 643.890625 L 352.066406 370.992188 C 357.507812 373.707031 363.515625 375.132812 369.671875 375.132812 C 390.097656 375.132812 406.972656 359.558594 408.996094 339.273438 Z M 202.945312 357.320312 C 202.183594 360.089844 202.550781 363.003906 203.980469 365.527344 C 205.429688 368.054688 207.746094 369.859375 210.535156 370.613281 L 330.410156 403.664062 L 330.410156 456.179688 C 291.710938 431.796875 250.851562 426.585938 223.007812 426.585938 C 211.0625 426.585938 200.875 427.542969 193.746094 428.480469 C 194.292969 389.015625 157.179688 355.894531 130.914062 337.445312 C 162.9375 335.058594 211.777344 325.632812 231.539062 291.429688 C 246.9375 303.550781 283.015625 328.066406 330.410156 335.488281 L 330.410156 381.191406 L 216.308594 349.742188 C 215.382812 349.480469 214.394531 349.347656 213.375 349.347656 C 208.542969 349.363281 204.253906 352.628906 202.945312 357.320312 Z M 202.945312 357.320312 " fill-opacity="1" fill-rule="nonzero"/></svg>