<svg xmlns="http://www.w3.org/2000/svg" xmlns:xlink="http://www.w3.org/1999/xlink" width="1080" zoomAndPan="magnify" viewBox="0 0 810 809.999993" height="1080" preserveAspectRatio="xMidYMid meet" version="1.0"><rect x="-81" width="972" fill="#ffffff" y="-80.999999" height="971.999992" fill-opacity="1"/><rect x="-81" width="972" fill="#f5f5f4" y="-80.999999" height="971.999992" fill-opacity="1"/><path fill="#000000" d="M 314.09375 299.429688 C 293.058594 301.832031 237.207031 312.132812 229.902344 354.074219 C 226.933594 371.25 237.355469 385.054688 257.832031 390.996094 C 277 396.597656 300.179688 399.6875 323.101562 399.6875 C 330.90625 399.6875 338.558594 399.328125 345.855469 398.628906 C 323.101562 439.292969 304.21875 489.957031 286.550781 557.839844 C 279.367188 585.382812 273.132812 624.914062 301.488281 650.21875 C 316.074219 663.253906 331.53125 669.863281 347.441406 669.863281 C 375.980469 669.863281 404.339844 647.671875 420.386719 613.015625 C 426.863281 646.742188 456.027344 671.746094 489.523438 671.746094 C 502.425781 671.746094 515.183594 668.136719 527.425781 660.96875 C 593.589844 622.414062 563.582031 546.855469 537.117188 480.199219 C 524.742188 449.046875 513.042969 419.609375 512.550781 397.140625 C 519.816406 398.496094 528.601562 399.203125 538.035156 399.203125 C 538.035156 399.203125 538.035156 399.203125 538.054688 399.203125 C 569.109375 399.203125 612.414062 391.039062 632.207031 367.984375 C 641.089844 357.640625 644.496094 345.277344 642.324219 331.242188 C 639.390625 311.878906 621.839844 296.355469 595.441406 289.726562 C 589.035156 288.125 572.113281 284.441406 551.933594 284.308594 C 581.03125 262.457031 592.710938 227.792969 582.429688 193.121094 C 563.976562 130.910156 499.074219 82.1875 434.679688 82.1875 C 429.941406 82.1875 425.167969 82.460938 420.535156 82.976562 C 395.773438 85.789062 359.914062 93.261719 329.640625 113.003906 C 300.476562 132.015625 283.332031 157.878906 278.695312 189.871094 C 273.394531 226.351562 282.3125 275.617188 314.09375 299.429688 Z M 586.648438 310.933594 C 596.40625 312.964844 603.957031 316.097656 609.65625 320.484375 C 617.496094 326.519531 621.003906 332.859375 620.054688 339.316406 C 618.269531 351.335938 601.660156 361.925781 587.296875 367.671875 C 589.535156 351.0625 589.328125 330.582031 586.648438 310.933594 Z M 292.820312 350.355469 C 293.289062 352.683594 293.730469 354.984375 294.117188 357.230469 L 294.488281 359.402344 C 295.246094 363.792969 296.035156 368.328125 297.046875 372.746094 C 296.148438 372.65625 295.136719 372.554688 294.027344 372.457031 C 282.632812 371.355469 258.933594 369.078125 255.59375 359.820312 C 254.210938 356.023438 256.433594 351.164062 262.167969 345.382812 C 269.585938 337.925781 278.824219 332.136719 290.398438 327.707031 C 289.765625 335.15625 291.304688 342.875 292.820312 350.355469 Z M 540.085938 608.714844 C 530.445312 632.148438 512.542969 645.582031 490.996094 645.582031 C 478.492188 645.582031 466.1875 641.019531 456.164062 632.722656 C 486.117188 623.136719 515.601562 604.941406 543.878906 578.605469 C 544.839844 590.273438 543.582031 600.148438 540.085938 608.714844 Z M 384.191406 632.035156 C 370.742188 645.492188 353.644531 649.085938 334.273438 642.410156 C 308.648438 633.578125 299.144531 612.894531 305.304688 579.214844 C 325.289062 604.636719 355.191406 624.660156 384.191406 632.035156 Z M 497.824219 284.277344 C 491.382812 284.679688 488.183594 290.007812 488.332031 295.0625 C 488.480469 299.570312 491.605469 304.519531 497.957031 304.042969 C 498.515625 304.007812 499.085938 303.933594 499.644531 303.863281 C 499.691406 303.851562 499.726562 303.851562 499.773438 303.84375 C 500.078125 304.550781 500.566406 305.054688 501.207031 305.347656 C 507.15625 308.039062 513.851562 309.289062 522.332031 309.289062 C 526.78125 309.289062 531.347656 308.96875 535.78125 308.648438 C 540.777344 308.285156 545.933594 307.898438 551.003906 308.003906 L 552.144531 308.039062 C 556.144531 308.113281 560.257812 308.195312 564.550781 308.390625 C 564.199219 309.476562 564.007812 310.546875 564.03125 311.65625 C 564.082031 319.136719 565.265625 326.726562 566.410156 334.0625 C 566.832031 336.765625 567.25 339.453125 567.601562 342.125 L 568.179688 346.523438 C 569.273438 354.886719 570.410156 363.519531 573 371.742188 C 563.152344 373.878906 552.582031 374.882812 539.886719 374.882812 C 531.4375 374.882812 523.097656 374.464844 514.261719 374.027344 L 512.222656 373.921875 C 508.964844 373.722656 506.117188 374.925781 504.042969 377.265625 C 501.988281 379.554688 500.894531 382.75 500.976562 386.015625 C 500.941406 386.015625 500.910156 386.015625 500.894531 386.015625 C 495.449219 386.015625 489.582031 389.453125 489.53125 397 C 489.359375 434.105469 502.820312 464.617188 517.09375 496.921875 C 520.984375 505.734375 525.015625 514.863281 528.742188 524.144531 C 532.148438 532.605469 536.40625 543.714844 539.582031 555.460938 C 535.9375 554.773438 532.386719 555.898438 529.570312 558.628906 C 505.3125 582.25 478.796875 599.039062 444.015625 618.335938 C 437.960938 608.378906 432.203125 592.222656 437.714844 570.558594 C 438.167969 568.824219 437.796875 567.070312 436.667969 565.625 C 435.453125 564.054688 433.484375 563.066406 431.558594 563.066406 C 431.289062 563.066406 431.035156 563.085938 430.769531 563.132812 C 429.082031 558.160156 424.246094 555.90625 419.96875 555.90625 C 414.539062 555.90625 408.65625 559.367188 408.574219 566.957031 C 408.386719 582.355469 404.394531 598.957031 397.617188 612.703125 C 397.023438 612.300781 396.382812 611.929688 395.578125 611.636719 C 360.820312 599.128906 337.027344 585.917969 313.441406 565.988281 C 312.175781 564.902344 310.53125 564.335938 308.753906 564.335938 C 311.132812 555.691406 313.894531 547.535156 316.355469 540.292969 C 317.367188 537.257812 318.328125 534.414062 319.183594 531.824219 C 323.90625 517.253906 329.246094 502.496094 334.402344 488.199219 C 346.292969 455.359375 358.574219 421.394531 364.644531 386.632812 C 365.128906 383.804688 363.535156 381.699219 361.675781 380.804688 C 360.308594 378.640625 357.675781 376.125 352.757812 375.769531 C 345.140625 375.226562 337.414062 374.957031 329.914062 374.710938 C 325.527344 374.546875 321.125 374.398438 316.714844 374.191406 C 316.9375 368.585938 316.570312 362.910156 316.230469 357.410156 L 316.042969 354.3125 C 315.925781 352.125 315.851562 349.886719 315.769531 347.628906 C 315.53125 339.636719 315.253906 331.378906 312.636719 323.882812 C 312.363281 323.066406 311.996094 322.296875 311.558594 321.554688 C 318.535156 320.007812 325.683594 318.742188 332.628906 317.511719 C 339.890625 316.226562 347.410156 314.894531 354.542969 313.25 C 355.421875 313.046875 356.230469 312.726562 356.902344 312.296875 C 357.429688 312.28125 357.949219 312.28125 358.476562 312.28125 C 359.875 312.265625 361.320312 312.246094 362.84375 312.09375 C 365.609375 311.796875 367.394531 309.15625 367.457031 306.871094 C 367.507812 304.691406 366.140625 303.105469 363.886719 302.734375 C 361.476562 302.332031 359.199219 301.757812 356.960938 301.171875 C 355.769531 300.078125 354.328125 299.40625 352.765625 299.214844 C 352.296875 299.167969 351.804688 299.125 351.316406 299.085938 C 350.792969 299.042969 350.273438 299.003906 349.984375 298.996094 C 306.171875 283.316406 290.613281 233.570312 297.925781 192.542969 C 308.195312 134.851562 358.34375 115.867188 395.183594 106.601562 C 408.566406 103.238281 421.648438 101.527344 434.054688 101.527344 C 465.238281 101.527344 493.070312 112.183594 516.769531 133.214844 C 532.484375 147.132812 549.421875 164.039062 555.945312 183.84375 C 564.445312 209.710938 561.558594 237.832031 548.378906 257.234375 C 537.289062 273.554688 519.808594 282.910156 497.824219 284.277344 Z M 497.824219 284.277344 " fill-opacity="1" fill-rule="nonzero"/><path fill="#000000" d="M 367.664062 169.308594 C 362.425781 169.308594 358.007812 171.207031 354.90625 174.824219 C 352.171875 178.023438 350.660156 182.28125 350.660156 186.863281 C 350.660156 195.316406 355.972656 204.410156 367.65625 204.410156 C 378.804688 204.410156 384.652344 195.578125 384.652344 186.847656 C 384.660156 178.394531 379.347656 169.308594 367.664062 169.308594 Z M 367.664062 169.308594 " fill-opacity="1" fill-rule="nonzero"/><path fill="#000000" d="M 490.355469 165.535156 C 490.207031 165.535156 490.085938 165.535156 489.953125 165.535156 C 487.507812 164.078125 484.679688 163.289062 481.964844 163.289062 C 477.144531 163.289062 473.160156 165.625 470.75 169.875 C 467.699219 175.253906 467.585938 180.925781 470.464844 185.828125 C 473.917969 191.761719 481.390625 195.90625 488.636719 195.90625 C 495.191406 195.90625 500.367188 192.558594 502.859375 186.722656 C 505.066406 181.59375 504.679688 176.164062 501.816406 171.839844 C 499.207031 167.886719 494.914062 165.535156 490.355469 165.535156 Z M 490.355469 165.535156 " fill-opacity="1" fill-rule="nonzero"/><path fill="#000000" d="M 468.792969 218.804688 C 465.707031 218.804688 462.929688 220.210938 460.96875 222.769531 C 453.417969 232.585938 440.824219 238.449219 427.289062 238.449219 C 417.121094 238.449219 407.414062 235.160156 399.960938 229.171875 C 398.949219 228.359375 397.699219 227.929688 396.351562 227.929688 C 394.128906 227.929688 392.015625 229.117188 391.0625 230.882812 C 390.222656 232.445312 390.386719 234.238281 391.511719 235.914062 C 400.300781 249.046875 415.585938 256.882812 432.441406 256.882812 C 451.015625 256.882812 467.996094 247.410156 476.773438 232.148438 C 478.507812 229.117188 478.640625 226 477.109375 223.367188 C 475.492188 220.589844 472.234375 218.804688 468.792969 218.804688 Z M 468.792969 218.804688 " fill-opacity="1" fill-rule="nonzero"/><path fill="#000000" d="M 428 318.226562 L 428 319.285156 C 427.898438 319.285156 427.808594 319.261719 427.695312 319.261719 C 426.023438 319.292969 424.355469 319.3125 422.714844 319.34375 C 400.160156 319.648438 400.125 354.03125 422.714844 354.351562 C 424.355469 354.367188 426.023438 354.394531 427.695312 354.425781 C 427.808594 354.425781 427.882812 354.402344 427.980469 354.402344 L 427.980469 355.453125 C 433.460938 355.453125 438.074219 353.414062 441.300781 349.582031 C 444.164062 346.203125 445.71875 341.667969 445.71875 336.816406 C 445.703125 327.863281 440.15625 318.226562 428 318.226562 Z M 428 318.226562 " fill-opacity="1" fill-rule="nonzero"/><path fill="#000000" d="M 427.695312 415.476562 C 420.460938 415.476562 416.6875 421.199219 416.6875 426.855469 C 416.6875 429.789062 417.648438 432.550781 419.417969 434.605469 C 421.441406 436.96875 424.289062 438.199219 427.695312 438.199219 C 434.925781 438.199219 438.71875 432.476562 438.71875 426.820312 C 438.71875 423.886719 437.738281 421.125 435.96875 419.066406 C 433.953125 416.699219 431.082031 415.476562 427.695312 415.476562 Z M 427.695312 415.476562 " fill-opacity="1" fill-rule="nonzero"/><path fill="#000000" d="M 427.695312 485.460938 C 420.460938 485.460938 416.6875 491.175781 416.6875 496.832031 C 416.6875 499.773438 417.648438 502.527344 419.417969 504.59375 C 421.441406 506.945312 424.289062 508.1875 427.695312 508.1875 C 434.925781 508.1875 438.71875 502.457031 438.71875 496.808594 C 438.71875 493.863281 437.738281 491.109375 435.96875 489.046875 C 433.953125 486.703125 431.082031 485.460938 427.695312 485.460938 Z M 427.695312 485.460938 " fill-opacity="1" fill-rule="nonzero"/><path fill="#000000" d="M 242.042969 237.542969 C 243.246094 238.644531 244.675781 239.226562 246.125 239.226562 C 248.371094 239.226562 250.460938 237.847656 251.457031 235.710938 C 252.46875 233.539062 252.097656 231.089844 250.492188 229.15625 C 229.121094 203.691406 227.402344 170.277344 245.992188 141.9375 C 247.8125 139.199219 248.015625 136.257812 246.617188 133.667969 C 245.046875 130.753906 241.625 128.808594 238.085938 128.808594 C 235.050781 128.808594 232.386719 130.203125 230.566406 132.746094 C 207.722656 164.851562 212.757812 210.871094 242.042969 237.542969 Z M 242.042969 237.542969 " fill-opacity="1" fill-rule="nonzero"/><path fill="#000000" d="M 183.09375 208.296875 C 185.535156 208.296875 187.960938 206.925781 189.277344 204.792969 C 190.5625 202.722656 190.628906 200.207031 189.453125 197.878906 C 173.945312 166.785156 183.488281 129.652344 212.15625 109.574219 C 216.738281 106.359375 217.183594 101.445312 216.082031 97.925781 C 214.714844 93.640625 211.179688 90.753906 207.246094 90.753906 C 205.476562 90.753906 203.691406 91.332031 201.972656 92.464844 C 165.59375 116.492188 154.316406 167.992188 177.359375 204.917969 C 178.722656 207.089844 180.746094 208.296875 183.09375 208.296875 Z M 183.09375 208.296875 " fill-opacity="1" fill-rule="nonzero"/><path fill="#000000" d="M 603.757812 644.285156 C 602.828125 639.671875 598.3125 637.574219 594.503906 637.574219 C 590.664062 637.574219 586.515625 639.679688 585.875 644.351562 L 585.667969 645.832031 C 583.679688 660.1875 581.976562 672.578125 572.0625 684.242188 C 562.148438 695.851562 548.171875 702.839844 532.699219 703.917969 C 527.941406 704.253906 525.804688 707.914062 525.835938 711.179688 C 525.871094 714.375 528.007812 717.945312 532.714844 718.207031 C 533.675781 718.265625 534.65625 718.289062 535.636719 718.289062 C 555.238281 718.289062 576.816406 707.386719 590.621094 690.507812 C 602.261719 676.285156 606.925781 659.855469 603.757812 644.285156 Z M 603.757812 644.285156 " fill-opacity="1" fill-rule="nonzero"/><path fill="#000000" d="M 636.039062 659.839844 C 627.1875 685.113281 615.648438 702.140625 598.667969 715.082031 C 595.96875 717.132812 594.925781 720.492188 596 723.644531 C 596.980469 726.5625 599.425781 728.445312 602.222656 728.445312 C 603.472656 728.445312 604.746094 728.074219 605.996094 727.351562 C 630.882812 712.929688 648.996094 689.59375 654.425781 664.914062 C 655.101562 661.863281 654.527344 658.96875 652.757812 656.773438 C 650.957031 654.527344 648.085938 653.1875 645.089844 653.1875 C 640.878906 653.195312 637.503906 655.679688 636.039062 659.839844 Z M 636.039062 659.839844 " fill-opacity="1" fill-rule="nonzero"/></svg>