<svg xmlns="http://www.w3.org/2000/svg" xmlns:xlink="http://www.w3.org/1999/xlink" width="1080" zoomAndPan="magnify" viewBox="0 0 810 809.999993" height="1080" preserveAspectRatio="xMidYMid meet" version="1.0"><defs><clipPath id="eda4edc58a"><path d="M 171 81 L 674 81 L 674 389 L 171 389 Z M 171 81 " clip-rule="nonzero"/></clipPath></defs><rect x="-81" width="972" fill="#ffffff" y="-80.999999" height="971.999992" fill-opacity="1"/><rect x="-81" width="972" fill="#f5f5f4" y="-80.999999" height="971.999992" fill-opacity="1"/><g clip-path="url(#eda4edc58a)"><path fill="#000000" d="M 193.644531 335.671875 C 196.421875 337.523438 199.671875 338.183594 203.3125 337.203125 C 206.695312 336.25 209.40625 333.808594 210.554688 330.691406 C 211.59375 327.941406 237.332031 263.28125 367.042969 260.816406 C 372 260.832031 488.757812 262.089844 525.921875 330.496094 C 527.511719 333.433594 530.542969 335.492188 534.019531 335.980469 C 537.46875 336.511719 540.878906 335.492188 543.625 333.027344 C 544.660156 332.007812 546.890625 329.679688 549.332031 326.128906 C 556.859375 333.753906 565.277344 340.386719 574.417969 345.90625 C 574.703125 350.957031 575.933594 355.933594 578.066406 360.699219 C 583.667969 373.203125 594.984375 382.695312 609.136719 386.742188 C 613.972656 388.113281 618.992188 388.824219 624.03125 388.824219 C 630.40625 388.824219 636.648438 387.722656 642.574219 385.542969 C 655.222656 380.84375 665.300781 371.433594 670.214844 359.730469 C 674.765625 348.851562 674.632812 336.933594 669.800781 326.179688 C 664.726562 314.898438 655.191406 306.136719 642.925781 301.484375 C 635.75 298.765625 628.082031 297.671875 620.355469 298.160156 C 599.910156 265.058594 588.953125 237.898438 580.132812 215.976562 C 563.785156 175.472656 551.984375 146.199219 503.128906 115.171875 C 469.0625 92.898438 426.765625 80.640625 384.058594 80.640625 C 356.753906 80.640625 329.675781 85.75 305.734375 95.429688 C 243.359375 120.65625 200.789062 176.109375 185.832031 251.609375 C 178.082031 264.546875 169.566406 283.609375 172.046875 302.128906 C 173.902344 315.75 181.144531 327.035156 193.644531 335.671875 Z M 559.246094 289.933594 C 557.375 262.046875 536.585938 233.566406 497.480469 205.335938 C 493.714844 202.496094 459.25 177.269531 407.121094 166.726562 C 392.609375 163.789062 377.855469 162.292969 363.246094 162.292969 C 312.097656 162.292969 263.699219 179.988281 219.15625 214.910156 C 237.714844 166.816406 270.441406 132.226562 314.511719 114.421875 C 335.761719 105.835938 359.824219 101.289062 384.140625 101.289062 C 422.054688 101.289062 459.574219 112.085938 489.894531 131.722656 L 490.695312 132.253906 C 533.851562 159.640625 544.074219 184.972656 559.515625 223.332031 C 568.765625 246.222656 579.195312 272.0625 598.699219 304.363281 C 590.28125 308.933594 583.457031 315.773438 579.210938 323.859375 C 571.492188 318.320312 564.652344 311.855469 558.429688 304.191406 C 559.277344 299.5 559.570312 294.71875 559.246094 289.933594 Z M 216.867188 245.253906 L 220.265625 241.597656 C 264.410156 202.585938 312.175781 182.804688 362.191406 182.804688 C 375.222656 182.804688 388.582031 184.15625 401.933594 186.828125 C 450.078125 196.449219 482.300781 220.433594 483.875 221.625 C 517.207031 245.667969 535.664062 269.628906 537.222656 290.914062 C 537.65625 296.742188 536.757812 301.710938 535.449219 305.679688 C 515.003906 279.464844 481.65625 260.039062 438.449219 249.285156 C 403.410156 240.566406 373.042969 240.101562 366.632812 240.101562 C 366.617188 240.101562 366.601562 240.101562 366.601562 240.101562 C 257.304688 242.191406 213.257812 285.984375 197.433594 309.578125 C 195.582031 306.558594 194.4375 303.246094 193.9375 299.539062 C 190.714844 275.765625 215.863281 246.410156 216.867188 245.253906 Z M 596.375 343.113281 C 596.519531 333.222656 603.199219 324.367188 613.40625 320.546875 C 616.753906 319.308594 620.316406 318.679688 623.933594 318.679688 C 627.597656 318.679688 631.207031 319.347656 634.65625 320.660156 C 641.464844 323.242188 646.730469 328.046875 649.484375 334.183594 C 652.0625 339.945312 652.144531 346.320312 649.6875 352.140625 C 647.007812 358.53125 641.457031 363.695312 634.457031 366.285156 C 628.554688 368.488281 621.808594 368.738281 615.570312 366.953125 C 607.722656 364.707031 601.453125 359.5 598.367188 352.671875 C 596.984375 349.535156 596.316406 346.328125 596.375 343.113281 Z M 596.375 343.113281 " fill-opacity="1" fill-rule="nonzero"/></g><path fill="#000000" d="M 332.796875 299.507812 C 323.847656 295.027344 313.769531 293.402344 303.128906 295.273438 C 291.714844 297.363281 281.296875 303.726562 273.78125 313.210938 C 272.125 315.339844 271.339844 318.042969 271.660156 320.628906 C 271.945312 323.054688 273.164062 325.199219 275.136719 326.710938 C 278.804688 329.394531 284.546875 328.429688 287.574219 324.613281 C 293.617188 317.023438 302.378906 312.671875 311.605469 312.671875 C 320.859375 312.671875 329.628906 317.03125 335.636719 324.605469 C 337.492188 326.9375 340.257812 328.332031 343.085938 328.332031 C 344.921875 328.332031 346.667969 327.753906 348.21875 326.621094 C 350.074219 325.214844 351.265625 323.09375 351.585938 320.605469 C 351.871094 318.019531 351.085938 315.316406 349.414062 313.195312 C 344.757812 307.285156 339.15625 302.675781 332.796875 299.507812 Z M 332.796875 299.507812 " fill-opacity="1" fill-rule="nonzero"/><path fill="#000000" d="M 441.257812 299.507812 C 432.308594 295.027344 422.25 293.402344 411.609375 295.273438 C 400.179688 297.371094 389.757812 303.726562 382.261719 313.203125 C 380.589844 315.300781 379.820312 318.007812 380.140625 320.628906 C 380.425781 323.070312 381.640625 325.214844 383.617188 326.710938 C 387.332031 329.394531 393.058594 328.421875 396.054688 324.613281 C 402.082031 317.023438 410.84375 312.671875 420.085938 312.671875 C 429.328125 312.671875 438.089844 317.03125 444.117188 324.628906 C 445.972656 326.953125 448.738281 328.332031 451.546875 328.332031 C 453.386719 328.332031 455.132812 327.753906 456.699219 326.613281 C 458.570312 325.191406 459.746094 323.0625 460.03125 320.660156 C 460.367188 318.109375 459.566406 315.324219 457.894531 313.1875 C 453.207031 307.277344 447.613281 302.675781 441.257812 299.507812 Z M 441.257812 299.507812 " fill-opacity="1" fill-rule="nonzero"/><path fill="#000000" d="M 252.511719 662.773438 C 266.515625 670.394531 279 676.367188 290.007812 681.648438 L 291.265625 682.253906 C 308.378906 690.363281 324.53125 698.035156 326.402344 703.804688 C 326.820312 705.144531 326.65625 707.804688 323.390625 712.921875 C 321.199219 716.382812 321.347656 720.765625 323.789062 724.113281 C 325.863281 726.902344 329.261719 728.574219 332.859375 728.574219 L 334.085938 728.511719 C 339.808594 727.90625 474.976562 712.585938 537.320312 619.257812 C 577.363281 559.253906 577.496094 481.667969 537.671875 388.570312 C 536.203125 385.144531 532.871094 382.703125 528.992188 382.1875 L 527.449219 382.082031 C 524.082031 382.082031 520.957031 383.488281 518.867188 385.933594 C 514.449219 391.085938 508.472656 393.476562 500.058594 393.476562 C 487.527344 393.476562 470.296875 388.171875 449.074219 381.234375 C 436.007812 376.941406 424.09375 373.089844 411.511719 369.882812 C 406.914062 352.179688 386.796875 339.140625 363.351562 339.140625 C 339.605469 339.140625 319.429688 352.367188 315.078125 370.324219 C 302.125 373.863281 289.925781 378.191406 278.09375 382.394531 C 257.535156 389.671875 240.835938 395.238281 228.683594 395.238281 C 221.074219 395.238281 215.480469 393.078125 211.09375 388.449219 C 208.417969 385.585938 203.96875 384.335938 200.1875 385.265625 C 196.101562 386.203125 192.910156 389.3125 192.054688 393.191406 C 191.417969 396.113281 190.28125 400.234375 188.84375 405.449219 C 174.367188 458.421875 135.898438 599.105469 252.511719 662.773438 Z M 363.351562 359.820312 C 374.832031 359.820312 385.136719 364.660156 388.984375 371.867188 C 389.972656 373.726562 390.484375 375.636719 390.484375 377.554688 C 390.484375 378.867188 390.25 380.15625 389.71875 381.527344 C 386.820312 389.492188 375.714844 395.261719 363.351562 395.261719 C 351.070312 395.261719 340.007812 389.535156 337.015625 381.644531 C 336.496094 380.214844 336.21875 378.882812 336.21875 377.5625 C 336.21875 375.691406 336.699219 373.855469 337.671875 371.980469 C 341.484375 364.699219 351.804688 359.820312 363.351562 359.820312 Z M 209.675781 412.53125 C 215.261719 414.792969 221.457031 415.910156 228.480469 415.910156 C 245.960938 415.910156 265.371094 409.023438 285.890625 401.726562 C 295.578125 398.308594 306.421875 394.464844 317.453125 391.28125 C 324.648438 405.972656 342.886719 415.960938 363.351562 415.960938 C 384.085938 415.960938 402.40625 405.792969 409.445312 390.839844 C 420.820312 393.882812 431.902344 397.523438 441.808594 400.773438 C 462.808594 407.644531 482.636719 414.132812 500.257812 414.132812 C 508.839844 414.132812 516.1875 412.589844 522.613281 409.441406 C 554.191406 490.082031 552.867188 556.9375 518.679688 608.199219 C 474.976562 673.707031 388.96875 697.433594 348.621094 705.210938 C 348.652344 702.6875 348.269531 700.257812 347.503906 697.847656 C 342.9375 683.597656 326.371094 675.722656 301.136719 663.71875 C 290.058594 658.453125 277.515625 652.480469 263.609375 644.875 C 163.171875 590.089844 195.671875 463.890625 209.675781 412.53125 Z M 209.675781 412.53125 " fill-opacity="1" fill-rule="nonzero"/><path fill="#000000" d="M 566.632812 623.351562 C 563.335938 624.976562 561.851562 627.988281 562.648438 631.367188 C 563.539062 635.179688 567.066406 638.058594 570.847656 638.058594 C 572.015625 638.058594 573.175781 637.804688 574.328125 637.277344 C 606.222656 623.011719 623.050781 585.566406 612.632812 552.03125 C 611.914062 549.671875 610.050781 548.222656 607.730469 548.222656 C 606.140625 548.222656 604.570312 548.9375 603.550781 550.148438 C 602.53125 551.355469 602.113281 552.953125 602.398438 554.644531 C 607.300781 583.707031 593.589844 610.027344 566.632812 623.351562 Z M 566.632812 623.351562 " fill-opacity="1" fill-rule="nonzero"/><path fill="#000000" d="M 577.480469 680.953125 C 577.667969 680.953125 577.863281 680.953125 578.066406 680.9375 C 616.664062 678.898438 648.429688 644.582031 647.410156 606.019531 C 647.3125 601.890625 644.183594 600.011719 641.332031 600.011719 C 638.484375 600.011719 635.292969 601.863281 635.003906 605.960938 C 632.898438 636.695312 608.933594 660.8125 577.976562 663.292969 C 572.171875 663.757812 569.296875 668.566406 569.492188 673.113281 C 569.632812 677.019531 572.179688 680.953125 577.480469 680.953125 Z M 577.480469 680.953125 " fill-opacity="1" fill-rule="nonzero"/></svg>