<svg xmlns="http://www.w3.org/2000/svg" xmlns:xlink="http://www.w3.org/1999/xlink" width="1080" zoomAndPan="magnify" viewBox="0 0 810 809.999993" height="1080" preserveAspectRatio="xMidYMid meet" version="1.0"><defs><clipPath id="c21c255881"><path d="M 326 81 L 484 81 L 484 231 L 326 231 Z M 326 81 " clip-rule="nonzero"/></clipPath></defs><path fill="#000000" d="M 176.402344 728.617188 L 633.382812 728.617188 C 637.566406 728.617188 641.414062 726.28125 643.351562 722.574219 C 645.292969 718.847656 644.988281 714.359375 642.585938 710.945312 L 569.476562 606.574219 L 602.347656 606.574219 C 606.546875 606.574219 610.386719 604.230469 612.320312 600.519531 C 614.257812 596.804688 613.96875 592.316406 611.554688 588.894531 L 523.167969 462.734375 L 556.1875 462.734375 C 560.378906 462.734375 564.226562 460.398438 566.152344 456.683594 C 568.09375 452.964844 567.800781 448.476562 565.386719 445.058594 L 520.46875 380.933594 C 520.460938 380.933594 520.460938 380.925781 520.453125 380.917969 L 414.105469 229.0625 C 409.90625 223.042969 399.886719 223.042969 395.6875 229.0625 L 244.378906 445.050781 C 241.964844 448.476562 241.675781 452.964844 243.613281 456.675781 C 245.539062 460.398438 249.386719 462.726562 253.578125 462.726562 L 286.589844 462.726562 L 198.214844 588.886719 C 195.796875 592.308594 195.507812 596.804688 197.445312 600.511719 C 199.371094 604.230469 203.21875 606.566406 207.417969 606.566406 L 240.289062 606.566406 L 167.1875 710.9375 C 164.777344 714.359375 164.488281 718.847656 166.421875 722.566406 C 168.367188 726.28125 172.214844 728.617188 176.402344 728.617188 Z M 611.78125 706.136719 L 586.199219 706.136719 C 449.132812 688.429688 397.429688 633.199219 380.097656 606.574219 L 542.03125 606.574219 Z M 404.890625 255.09375 L 489.367188 375.671875 C 407.035156 372.296875 365.996094 343.015625 352.113281 330.421875 Z M 339.070312 349.039062 C 358.878906 366.332031 408.707031 398.574219 504.820312 398.574219 C 505.007812 398.574219 505.21875 398.574219 505.398438 398.574219 L 534.601562 440.246094 L 275.164062 440.246094 Z M 495.746094 462.734375 L 505.234375 476.273438 C 478.761719 490.734375 398.695312 527.777344 263.042969 535.523438 L 314.035156 462.726562 L 495.746094 462.726562 Z M 246.742188 558.792969 C 402.042969 553.023438 490.492188 510.59375 518.234375 494.835938 L 580.761719 584.085938 L 229.011719 584.085938 Z M 267.75 606.574219 L 354.148438 606.574219 C 363.300781 625.6875 394.707031 674.667969 485.195312 706.136719 L 198.003906 706.136719 Z M 267.75 606.574219 " fill-opacity="1" fill-rule="nonzero"/><g clip-path="url(#c21c255881)"><path fill="#000000" d="M 366.121094 175.183594 L 352.898438 216.765625 C 351.488281 221.167969 353.078125 225.992188 356.824219 228.710938 C 358.699219 230.085938 360.929688 230.757812 363.152344 230.757812 C 365.347656 230.757812 367.546875 230.09375 369.414062 228.757812 L 404.898438 203.339844 L 440.382812 228.757812 C 444.136719 231.4375 449.226562 231.4375 452.964844 228.710938 C 456.714844 225.992188 458.300781 221.167969 456.894531 216.765625 L 443.667969 175.183594 L 478.824219 149.300781 C 482.5625 146.550781 484.109375 141.726562 482.664062 137.328125 C 481.238281 132.917969 477.140625 129.933594 472.503906 129.902344 L 428.855469 129.636719 L 415.097656 88.214844 C 413.628906 83.8125 409.519531 80.859375 404.890625 80.859375 C 400.246094 80.859375 396.140625 83.828125 394.683594 88.214844 L 380.917969 129.636719 L 337.277344 129.902344 C 332.640625 129.933594 328.558594 132.917969 327.121094 137.328125 C 325.679688 141.726562 327.230469 146.550781 330.96875 149.300781 Z M 388.773438 151.085938 C 393.371094 151.054688 397.453125 148.097656 398.90625 143.730469 L 404.890625 125.71875 L 410.867188 143.730469 C 412.320312 148.097656 416.402344 151.0625 421.011719 151.085938 L 439.984375 151.210938 L 424.710938 162.449219 C 420.996094 165.175781 419.4375 169.96875 420.839844 174.355469 L 426.585938 192.433594 L 411.15625 181.375 C 409.277344 180.035156 407.082031 179.371094 404.890625 179.371094 C 402.695312 179.371094 400.488281 180.035156 398.625 181.375 L 383.210938 192.425781 L 388.953125 174.355469 C 390.34375 169.960938 388.789062 165.175781 385.082031 162.449219 L 369.804688 151.210938 Z M 388.773438 151.085938 " fill-opacity="1" fill-rule="nonzero"/></g></svg>